<mxfile host="Electron" modified="2025-04-22T10:39:56.036Z" agent="Mozilla/5.0 (Macintosh; Intel Mac OS X 10_15_7) AppleWebKit/537.36 (KHTML, like Gecko) draw.io/22.1.18 Chrome/120.0.6099.199 Electron/28.1.2 Safari/537.36" etag="Ajl8bwK-wMiGprItJmWo" version="22.1.18" type="device" pages="5">
  <diagram name="ERD diagram" id="u1lntK4HChI3Z0QwtSoi">
    <mxGraphModel dx="664" dy="422" grid="1" gridSize="10" guides="1" tooltips="1" connect="1" arrows="1" fold="1" page="1" pageScale="1" pageWidth="4681" pageHeight="3300" math="0" shadow="0">
      <root>
        <mxCell id="0" />
        <mxCell id="1" parent="0" />
        <mxCell id="IYf-hnqz8nAqkJ0r9qaw-1" value="Contestants" style="rounded=0;whiteSpace=wrap;html=1;" parent="1" vertex="1">
          <mxGeometry x="420" y="240" width="120" height="40" as="geometry" />
        </mxCell>
        <mxCell id="IYf-hnqz8nAqkJ0r9qaw-2" value="Teams" style="rounded=0;whiteSpace=wrap;html=1;" parent="1" vertex="1">
          <mxGeometry x="610" y="140" width="100" height="40" as="geometry" />
        </mxCell>
        <mxCell id="IYf-hnqz8nAqkJ0r9qaw-6" style="edgeStyle=orthogonalEdgeStyle;rounded=0;orthogonalLoop=1;jettySize=auto;html=1;exitX=0.5;exitY=1;exitDx=0;exitDy=0;entryX=0.5;entryY=0;entryDx=0;entryDy=0;endArrow=ERoneToMany;endFill=0;" parent="1" source="IYf-hnqz8nAqkJ0r9qaw-4" target="IYf-hnqz8nAqkJ0r9qaw-1" edge="1">
          <mxGeometry relative="1" as="geometry" />
        </mxCell>
        <mxCell id="IYf-hnqz8nAqkJ0r9qaw-7" style="edgeStyle=orthogonalEdgeStyle;rounded=0;orthogonalLoop=1;jettySize=auto;html=1;exitX=1;exitY=0.5;exitDx=0;exitDy=0;entryX=0;entryY=0.5;entryDx=0;entryDy=0;endArrow=ERoneToMany;endFill=0;" parent="1" source="IYf-hnqz8nAqkJ0r9qaw-4" target="IYf-hnqz8nAqkJ0r9qaw-5" edge="1">
          <mxGeometry relative="1" as="geometry" />
        </mxCell>
        <mxCell id="IYf-hnqz8nAqkJ0r9qaw-4" value="Contest &lt;br&gt;participants" style="shape=associativeEntity;whiteSpace=wrap;html=1;align=center;" parent="1" vertex="1">
          <mxGeometry x="420" y="48.75" width="120" height="62.5" as="geometry" />
        </mxCell>
        <mxCell id="IYf-hnqz8nAqkJ0r9qaw-5" value="Contests" style="rounded=0;whiteSpace=wrap;html=1;" parent="1" vertex="1">
          <mxGeometry x="600" y="60" width="120" height="40" as="geometry" />
        </mxCell>
        <mxCell id="IYf-hnqz8nAqkJ0r9qaw-9" style="edgeStyle=orthogonalEdgeStyle;rounded=0;orthogonalLoop=1;jettySize=auto;html=1;exitX=0.5;exitY=0;exitDx=0;exitDy=0;endArrow=ERone;endFill=0;entryX=0.5;entryY=1;entryDx=0;entryDy=0;" parent="1" source="IYf-hnqz8nAqkJ0r9qaw-8" target="IYf-hnqz8nAqkJ0r9qaw-2" edge="1">
          <mxGeometry relative="1" as="geometry" />
        </mxCell>
        <mxCell id="T4_8Jd3icFzN5MIb2SGN-1" value="1" style="edgeLabel;html=1;align=center;verticalAlign=middle;resizable=0;points=[];" vertex="1" connectable="0" parent="IYf-hnqz8nAqkJ0r9qaw-9">
          <mxGeometry x="0.3929" y="1" relative="1" as="geometry">
            <mxPoint x="8" as="offset" />
          </mxGeometry>
        </mxCell>
        <mxCell id="IYf-hnqz8nAqkJ0r9qaw-10" value="3" style="edgeStyle=orthogonalEdgeStyle;rounded=0;orthogonalLoop=1;jettySize=auto;html=1;endArrow=ERoneToMany;endFill=0;entryX=1;entryY=0.5;entryDx=0;entryDy=0;exitX=0;exitY=0.5;exitDx=0;exitDy=0;" parent="1" source="IYf-hnqz8nAqkJ0r9qaw-8" target="IYf-hnqz8nAqkJ0r9qaw-1" edge="1">
          <mxGeometry x="0.3333" y="-10" relative="1" as="geometry">
            <mxPoint as="offset" />
            <mxPoint x="690" y="310" as="sourcePoint" />
          </mxGeometry>
        </mxCell>
        <mxCell id="IYf-hnqz8nAqkJ0r9qaw-8" value="member of" style="shape=rhombus;perimeter=rhombusPerimeter;whiteSpace=wrap;html=1;align=center;" parent="1" vertex="1">
          <mxGeometry x="600" y="230" width="120" height="60" as="geometry" />
        </mxCell>
        <mxCell id="IYf-hnqz8nAqkJ0r9qaw-13" value="Affiliations" style="rounded=0;whiteSpace=wrap;html=1;" parent="1" vertex="1">
          <mxGeometry x="240" y="60" width="120" height="40" as="geometry" />
        </mxCell>
        <mxCell id="IYf-hnqz8nAqkJ0r9qaw-15" style="edgeStyle=orthogonalEdgeStyle;rounded=0;orthogonalLoop=1;jettySize=auto;html=1;endArrow=ERone;endFill=0;" parent="1" source="IYf-hnqz8nAqkJ0r9qaw-14" target="IYf-hnqz8nAqkJ0r9qaw-13" edge="1">
          <mxGeometry relative="1" as="geometry" />
        </mxCell>
        <mxCell id="IYf-hnqz8nAqkJ0r9qaw-16" style="edgeStyle=orthogonalEdgeStyle;rounded=0;orthogonalLoop=1;jettySize=auto;html=1;exitX=1;exitY=0.5;exitDx=0;exitDy=0;entryX=0;entryY=0.5;entryDx=0;entryDy=0;endArrow=ERoneToMany;endFill=0;" parent="1" source="IYf-hnqz8nAqkJ0r9qaw-14" target="IYf-hnqz8nAqkJ0r9qaw-1" edge="1">
          <mxGeometry relative="1" as="geometry" />
        </mxCell>
        <mxCell id="IYf-hnqz8nAqkJ0r9qaw-14" value="has" style="shape=rhombus;perimeter=rhombusPerimeter;whiteSpace=wrap;html=1;align=center;" parent="1" vertex="1">
          <mxGeometry x="240" y="230" width="120" height="60" as="geometry" />
        </mxCell>
      </root>
    </mxGraphModel>
  </diagram>
  <diagram id="dxuS2H3VBzd1Qco6m0xg" name="Class diagram">
    <mxGraphModel dx="1189" dy="756" grid="1" gridSize="10" guides="1" tooltips="1" connect="1" arrows="1" fold="1" page="1" pageScale="1" pageWidth="4681" pageHeight="3300" background="none" math="0" shadow="0">
      <root>
        <mxCell id="0" />
        <mxCell id="1" parent="0" />
        <mxCell id="Ubtxz8actd3O8gpwUIdc-1" value="Affiliation" style="swimlane;fontStyle=1;align=center;verticalAlign=top;childLayout=stackLayout;horizontal=1;startSize=26;horizontalStack=0;resizeParent=1;resizeParentMax=0;resizeLast=0;collapsible=1;marginBottom=0;whiteSpace=wrap;html=1;" parent="1" vertex="1">
          <mxGeometry x="80" y="80" width="160" height="130" as="geometry" />
        </mxCell>
        <mxCell id="Ubtxz8actd3O8gpwUIdc-2" value="- id: string" style="text;strokeColor=none;fillColor=none;align=left;verticalAlign=top;spacingLeft=4;spacingRight=4;overflow=hidden;rotatable=0;points=[[0,0.5],[1,0.5]];portConstraint=eastwest;whiteSpace=wrap;html=1;" parent="Ubtxz8actd3O8gpwUIdc-1" vertex="1">
          <mxGeometry y="26" width="160" height="26" as="geometry" />
        </mxCell>
        <mxCell id="Ubtxz8actd3O8gpwUIdc-4" value="- name: string" style="text;strokeColor=none;fillColor=none;align=left;verticalAlign=top;spacingLeft=4;spacingRight=4;overflow=hidden;rotatable=0;points=[[0,0.5],[1,0.5]];portConstraint=eastwest;whiteSpace=wrap;html=1;" parent="Ubtxz8actd3O8gpwUIdc-1" vertex="1">
          <mxGeometry y="52" width="160" height="26" as="geometry" />
        </mxCell>
        <mxCell id="vsE9vtKkinqPw54ye6ic-3" value="- createdAt: date" style="text;strokeColor=none;fillColor=none;align=left;verticalAlign=top;spacingLeft=4;spacingRight=4;overflow=hidden;rotatable=0;points=[[0,0.5],[1,0.5]];portConstraint=eastwest;whiteSpace=wrap;html=1;" parent="Ubtxz8actd3O8gpwUIdc-1" vertex="1">
          <mxGeometry y="78" width="160" height="26" as="geometry" />
        </mxCell>
        <mxCell id="vsE9vtKkinqPw54ye6ic-4" value="- updatedAt: date" style="text;strokeColor=none;fillColor=none;align=left;verticalAlign=top;spacingLeft=4;spacingRight=4;overflow=hidden;rotatable=0;points=[[0,0.5],[1,0.5]];portConstraint=eastwest;whiteSpace=wrap;html=1;" parent="Ubtxz8actd3O8gpwUIdc-1" vertex="1">
          <mxGeometry y="104" width="160" height="26" as="geometry" />
        </mxCell>
        <mxCell id="vsE9vtKkinqPw54ye6ic-8" value="Contestant" style="swimlane;fontStyle=1;align=center;verticalAlign=top;childLayout=stackLayout;horizontal=1;startSize=26;horizontalStack=0;resizeParent=1;resizeParentMax=0;resizeLast=0;collapsible=1;marginBottom=0;whiteSpace=wrap;html=1;" parent="1" vertex="1">
          <mxGeometry x="360" y="80" width="240" height="338" as="geometry">
            <mxRectangle x="360" y="80" width="100" height="30" as="alternateBounds" />
          </mxGeometry>
        </mxCell>
        <mxCell id="vsE9vtKkinqPw54ye6ic-9" value="- id: string" style="text;strokeColor=none;fillColor=none;align=left;verticalAlign=top;spacingLeft=4;spacingRight=4;overflow=hidden;rotatable=0;points=[[0,0.5],[1,0.5]];portConstraint=eastwest;whiteSpace=wrap;html=1;" parent="vsE9vtKkinqPw54ye6ic-8" vertex="1">
          <mxGeometry y="26" width="240" height="26" as="geometry" />
        </mxCell>
        <mxCell id="vsE9vtKkinqPw54ye6ic-10" value="- email: string" style="text;strokeColor=none;fillColor=none;align=left;verticalAlign=top;spacingLeft=4;spacingRight=4;overflow=hidden;rotatable=0;points=[[0,0.5],[1,0.5]];portConstraint=eastwest;whiteSpace=wrap;html=1;" parent="vsE9vtKkinqPw54ye6ic-8" vertex="1">
          <mxGeometry y="52" width="240" height="26" as="geometry" />
        </mxCell>
        <mxCell id="vsE9vtKkinqPw54ye6ic-11" value="- username: string" style="text;strokeColor=none;fillColor=none;align=left;verticalAlign=top;spacingLeft=4;spacingRight=4;overflow=hidden;rotatable=0;points=[[0,0.5],[1,0.5]];portConstraint=eastwest;whiteSpace=wrap;html=1;" parent="vsE9vtKkinqPw54ye6ic-8" vertex="1">
          <mxGeometry y="78" width="240" height="26" as="geometry" />
        </mxCell>
        <mxCell id="vsE9vtKkinqPw54ye6ic-12" value="- password: string" style="text;strokeColor=none;fillColor=none;align=left;verticalAlign=top;spacingLeft=4;spacingRight=4;overflow=hidden;rotatable=0;points=[[0,0.5],[1,0.5]];portConstraint=eastwest;whiteSpace=wrap;html=1;" parent="vsE9vtKkinqPw54ye6ic-8" vertex="1">
          <mxGeometry y="104" width="240" height="26" as="geometry" />
        </mxCell>
        <mxCell id="vsE9vtKkinqPw54ye6ic-18" value="- firstName: string" style="text;strokeColor=none;fillColor=none;align=left;verticalAlign=top;spacingLeft=4;spacingRight=4;overflow=hidden;rotatable=0;points=[[0,0.5],[1,0.5]];portConstraint=eastwest;whiteSpace=wrap;html=1;" parent="vsE9vtKkinqPw54ye6ic-8" vertex="1">
          <mxGeometry y="130" width="240" height="26" as="geometry" />
        </mxCell>
        <mxCell id="vsE9vtKkinqPw54ye6ic-19" value="- lastName: string" style="text;strokeColor=none;fillColor=none;align=left;verticalAlign=top;spacingLeft=4;spacingRight=4;overflow=hidden;rotatable=0;points=[[0,0.5],[1,0.5]];portConstraint=eastwest;whiteSpace=wrap;html=1;" parent="vsE9vtKkinqPw54ye6ic-8" vertex="1">
          <mxGeometry y="156" width="240" height="26" as="geometry" />
        </mxCell>
        <mxCell id="vsE9vtKkinqPw54ye6ic-20" value="- studentId: string" style="text;strokeColor=none;fillColor=none;align=left;verticalAlign=top;spacingLeft=4;spacingRight=4;overflow=hidden;rotatable=0;points=[[0,0.5],[1,0.5]];portConstraint=eastwest;whiteSpace=wrap;html=1;" parent="vsE9vtKkinqPw54ye6ic-8" vertex="1">
          <mxGeometry y="182" width="240" height="26" as="geometry" />
        </mxCell>
        <mxCell id="vsE9vtKkinqPw54ye6ic-21" value="- gender: enum(MALE, FEMALE, OTHER)" style="text;strokeColor=none;fillColor=none;align=left;verticalAlign=top;spacingLeft=4;spacingRight=4;overflow=hidden;rotatable=0;points=[[0,0.5],[1,0.5]];portConstraint=eastwest;whiteSpace=wrap;html=1;" parent="vsE9vtKkinqPw54ye6ic-8" vertex="1">
          <mxGeometry y="208" width="240" height="26" as="geometry" />
        </mxCell>
        <mxCell id="vsE9vtKkinqPw54ye6ic-22" value="- affiliationId: string" style="text;strokeColor=none;fillColor=none;align=left;verticalAlign=top;spacingLeft=4;spacingRight=4;overflow=hidden;rotatable=0;points=[[0,0.5],[1,0.5]];portConstraint=eastwest;whiteSpace=wrap;html=1;" parent="vsE9vtKkinqPw54ye6ic-8" vertex="1">
          <mxGeometry y="234" width="240" height="26" as="geometry" />
        </mxCell>
        <mxCell id="vsE9vtKkinqPw54ye6ic-23" value="- teamId: string" style="text;strokeColor=none;fillColor=none;align=left;verticalAlign=top;spacingLeft=4;spacingRight=4;overflow=hidden;rotatable=0;points=[[0,0.5],[1,0.5]];portConstraint=eastwest;whiteSpace=wrap;html=1;" parent="vsE9vtKkinqPw54ye6ic-8" vertex="1">
          <mxGeometry y="260" width="240" height="26" as="geometry" />
        </mxCell>
        <mxCell id="vsE9vtKkinqPw54ye6ic-24" value="- createdAt: date" style="text;strokeColor=none;fillColor=none;align=left;verticalAlign=top;spacingLeft=4;spacingRight=4;overflow=hidden;rotatable=0;points=[[0,0.5],[1,0.5]];portConstraint=eastwest;whiteSpace=wrap;html=1;" parent="vsE9vtKkinqPw54ye6ic-8" vertex="1">
          <mxGeometry y="286" width="240" height="26" as="geometry" />
        </mxCell>
        <mxCell id="vsE9vtKkinqPw54ye6ic-25" value="- updatedAt: date" style="text;strokeColor=none;fillColor=none;align=left;verticalAlign=top;spacingLeft=4;spacingRight=4;overflow=hidden;rotatable=0;points=[[0,0.5],[1,0.5]];portConstraint=eastwest;whiteSpace=wrap;html=1;" parent="vsE9vtKkinqPw54ye6ic-8" vertex="1">
          <mxGeometry y="312" width="240" height="26" as="geometry" />
        </mxCell>
        <mxCell id="vsE9vtKkinqPw54ye6ic-26" value="Team" style="swimlane;fontStyle=1;align=center;verticalAlign=top;childLayout=stackLayout;horizontal=1;startSize=26;horizontalStack=0;resizeParent=1;resizeParentMax=0;resizeLast=0;collapsible=1;marginBottom=0;whiteSpace=wrap;html=1;" parent="1" vertex="1">
          <mxGeometry x="80" y="314" width="160" height="156" as="geometry" />
        </mxCell>
        <mxCell id="vsE9vtKkinqPw54ye6ic-27" value="- id: string" style="text;strokeColor=none;fillColor=none;align=left;verticalAlign=top;spacingLeft=4;spacingRight=4;overflow=hidden;rotatable=0;points=[[0,0.5],[1,0.5]];portConstraint=eastwest;whiteSpace=wrap;html=1;" parent="vsE9vtKkinqPw54ye6ic-26" vertex="1">
          <mxGeometry y="26" width="160" height="26" as="geometry" />
        </mxCell>
        <mxCell id="vsE9vtKkinqPw54ye6ic-28" value="- name: string" style="text;strokeColor=none;fillColor=none;align=left;verticalAlign=top;spacingLeft=4;spacingRight=4;overflow=hidden;rotatable=0;points=[[0,0.5],[1,0.5]];portConstraint=eastwest;whiteSpace=wrap;html=1;" parent="vsE9vtKkinqPw54ye6ic-26" vertex="1">
          <mxGeometry y="52" width="160" height="26" as="geometry" />
        </mxCell>
        <mxCell id="vsE9vtKkinqPw54ye6ic-29" value="- description: string" style="text;strokeColor=none;fillColor=none;align=left;verticalAlign=top;spacingLeft=4;spacingRight=4;overflow=hidden;rotatable=0;points=[[0,0.5],[1,0.5]];portConstraint=eastwest;whiteSpace=wrap;html=1;" parent="vsE9vtKkinqPw54ye6ic-26" vertex="1">
          <mxGeometry y="78" width="160" height="26" as="geometry" />
        </mxCell>
        <mxCell id="vsE9vtKkinqPw54ye6ic-30" value="- createdAt: date" style="text;strokeColor=none;fillColor=none;align=left;verticalAlign=top;spacingLeft=4;spacingRight=4;overflow=hidden;rotatable=0;points=[[0,0.5],[1,0.5]];portConstraint=eastwest;whiteSpace=wrap;html=1;" parent="vsE9vtKkinqPw54ye6ic-26" vertex="1">
          <mxGeometry y="104" width="160" height="26" as="geometry" />
        </mxCell>
        <mxCell id="vsE9vtKkinqPw54ye6ic-31" value="- updatedAt: date" style="text;strokeColor=none;fillColor=none;align=left;verticalAlign=top;spacingLeft=4;spacingRight=4;overflow=hidden;rotatable=0;points=[[0,0.5],[1,0.5]];portConstraint=eastwest;whiteSpace=wrap;html=1;" parent="vsE9vtKkinqPw54ye6ic-26" vertex="1">
          <mxGeometry y="130" width="160" height="26" as="geometry" />
        </mxCell>
        <mxCell id="vsE9vtKkinqPw54ye6ic-32" value="Contest" style="swimlane;fontStyle=1;align=center;verticalAlign=top;childLayout=stackLayout;horizontal=1;startSize=26;horizontalStack=0;resizeParent=1;resizeParentMax=0;resizeLast=0;collapsible=1;marginBottom=0;whiteSpace=wrap;html=1;" parent="1" vertex="1">
          <mxGeometry x="720" y="80" width="180" height="286" as="geometry" />
        </mxCell>
        <mxCell id="vsE9vtKkinqPw54ye6ic-33" value="- id: string" style="text;strokeColor=none;fillColor=none;align=left;verticalAlign=top;spacingLeft=4;spacingRight=4;overflow=hidden;rotatable=0;points=[[0,0.5],[1,0.5]];portConstraint=eastwest;whiteSpace=wrap;html=1;" parent="vsE9vtKkinqPw54ye6ic-32" vertex="1">
          <mxGeometry y="26" width="180" height="26" as="geometry" />
        </mxCell>
        <mxCell id="vsE9vtKkinqPw54ye6ic-34" value="- name: string" style="text;strokeColor=none;fillColor=none;align=left;verticalAlign=top;spacingLeft=4;spacingRight=4;overflow=hidden;rotatable=0;points=[[0,0.5],[1,0.5]];portConstraint=eastwest;whiteSpace=wrap;html=1;" parent="vsE9vtKkinqPw54ye6ic-32" vertex="1">
          <mxGeometry y="52" width="180" height="26" as="geometry" />
        </mxCell>
        <mxCell id="vsE9vtKkinqPw54ye6ic-35" value="- formalName: string" style="text;strokeColor=none;fillColor=none;align=left;verticalAlign=top;spacingLeft=4;spacingRight=4;overflow=hidden;rotatable=0;points=[[0,0.5],[1,0.5]];portConstraint=eastwest;whiteSpace=wrap;html=1;" parent="vsE9vtKkinqPw54ye6ic-32" vertex="1">
          <mxGeometry y="78" width="180" height="26" as="geometry" />
        </mxCell>
        <mxCell id="vsE9vtKkinqPw54ye6ic-36" value="- description: string" style="text;strokeColor=none;fillColor=none;align=left;verticalAlign=top;spacingLeft=4;spacingRight=4;overflow=hidden;rotatable=0;points=[[0,0.5],[1,0.5]];portConstraint=eastwest;whiteSpace=wrap;html=1;" parent="vsE9vtKkinqPw54ye6ic-32" vertex="1">
          <mxGeometry y="104" width="180" height="26" as="geometry" />
        </mxCell>
        <mxCell id="vsE9vtKkinqPw54ye6ic-37" value="- banner: string" style="text;strokeColor=none;fillColor=none;align=left;verticalAlign=top;spacingLeft=4;spacingRight=4;overflow=hidden;rotatable=0;points=[[0,0.5],[1,0.5]];portConstraint=eastwest;whiteSpace=wrap;html=1;" parent="vsE9vtKkinqPw54ye6ic-32" vertex="1">
          <mxGeometry y="130" width="180" height="26" as="geometry" />
        </mxCell>
        <mxCell id="vsE9vtKkinqPw54ye6ic-38" value="- startAt: string" style="text;strokeColor=none;fillColor=none;align=left;verticalAlign=top;spacingLeft=4;spacingRight=4;overflow=hidden;rotatable=0;points=[[0,0.5],[1,0.5]];portConstraint=eastwest;whiteSpace=wrap;html=1;" parent="vsE9vtKkinqPw54ye6ic-32" vertex="1">
          <mxGeometry y="156" width="180" height="26" as="geometry" />
        </mxCell>
        <mxCell id="vsE9vtKkinqPw54ye6ic-39" value="- duration: ints" style="text;strokeColor=none;fillColor=none;align=left;verticalAlign=top;spacingLeft=4;spacingRight=4;overflow=hidden;rotatable=0;points=[[0,0.5],[1,0.5]];portConstraint=eastwest;whiteSpace=wrap;html=1;" parent="vsE9vtKkinqPw54ye6ic-32" vertex="1">
          <mxGeometry y="182" width="180" height="26" as="geometry" />
        </mxCell>
        <mxCell id="vsE9vtKkinqPw54ye6ic-40" value="- type: enum(TEAM, SINGLE)" style="text;strokeColor=none;fillColor=none;align=left;verticalAlign=top;spacingLeft=4;spacingRight=4;overflow=hidden;rotatable=0;points=[[0,0.5],[1,0.5]];portConstraint=eastwest;whiteSpace=wrap;html=1;" parent="vsE9vtKkinqPw54ye6ic-32" vertex="1">
          <mxGeometry y="208" width="180" height="26" as="geometry" />
        </mxCell>
        <mxCell id="vsE9vtKkinqPw54ye6ic-43" value="- createdAt: date" style="text;strokeColor=none;fillColor=none;align=left;verticalAlign=top;spacingLeft=4;spacingRight=4;overflow=hidden;rotatable=0;points=[[0,0.5],[1,0.5]];portConstraint=eastwest;whiteSpace=wrap;html=1;" parent="vsE9vtKkinqPw54ye6ic-32" vertex="1">
          <mxGeometry y="234" width="180" height="26" as="geometry" />
        </mxCell>
        <mxCell id="vsE9vtKkinqPw54ye6ic-44" value="- updatedAt: date" style="text;strokeColor=none;fillColor=none;align=left;verticalAlign=top;spacingLeft=4;spacingRight=4;overflow=hidden;rotatable=0;points=[[0,0.5],[1,0.5]];portConstraint=eastwest;whiteSpace=wrap;html=1;" parent="vsE9vtKkinqPw54ye6ic-32" vertex="1">
          <mxGeometry y="260" width="180" height="26" as="geometry" />
        </mxCell>
        <mxCell id="7T4GXaZ_U50YjnrrbiTY-1" value="ContestRegistration" style="swimlane;fontStyle=1;align=center;verticalAlign=top;childLayout=stackLayout;horizontal=1;startSize=26;horizontalStack=0;resizeParent=1;resizeParentMax=0;resizeLast=0;collapsible=1;marginBottom=0;whiteSpace=wrap;html=1;" parent="1" vertex="1">
          <mxGeometry x="720" y="400" width="160" height="130" as="geometry" />
        </mxCell>
        <mxCell id="7T4GXaZ_U50YjnrrbiTY-3" value="- contestId: string" style="text;strokeColor=none;fillColor=none;align=left;verticalAlign=top;spacingLeft=4;spacingRight=4;overflow=hidden;rotatable=0;points=[[0,0.5],[1,0.5]];portConstraint=eastwest;whiteSpace=wrap;html=1;" parent="7T4GXaZ_U50YjnrrbiTY-1" vertex="1">
          <mxGeometry y="26" width="160" height="26" as="geometry" />
        </mxCell>
        <mxCell id="7T4GXaZ_U50YjnrrbiTY-4" value="- contestantId: string" style="text;strokeColor=none;fillColor=none;align=left;verticalAlign=top;spacingLeft=4;spacingRight=4;overflow=hidden;rotatable=0;points=[[0,0.5],[1,0.5]];portConstraint=eastwest;whiteSpace=wrap;html=1;" parent="7T4GXaZ_U50YjnrrbiTY-1" vertex="1">
          <mxGeometry y="52" width="160" height="26" as="geometry" />
        </mxCell>
        <mxCell id="7T4GXaZ_U50YjnrrbiTY-5" value="- createdAt: date" style="text;strokeColor=none;fillColor=none;align=left;verticalAlign=top;spacingLeft=4;spacingRight=4;overflow=hidden;rotatable=0;points=[[0,0.5],[1,0.5]];portConstraint=eastwest;whiteSpace=wrap;html=1;" parent="7T4GXaZ_U50YjnrrbiTY-1" vertex="1">
          <mxGeometry y="78" width="160" height="26" as="geometry" />
        </mxCell>
        <mxCell id="7T4GXaZ_U50YjnrrbiTY-6" value="- updatedAt: date" style="text;strokeColor=none;fillColor=none;align=left;verticalAlign=top;spacingLeft=4;spacingRight=4;overflow=hidden;rotatable=0;points=[[0,0.5],[1,0.5]];portConstraint=eastwest;whiteSpace=wrap;html=1;" parent="7T4GXaZ_U50YjnrrbiTY-1" vertex="1">
          <mxGeometry y="104" width="160" height="26" as="geometry" />
        </mxCell>
        <mxCell id="2fKqH-kDjOcJLg-NvFz1-1" style="edgeStyle=orthogonalEdgeStyle;rounded=0;orthogonalLoop=1;jettySize=auto;html=1;exitX=1;exitY=0.5;exitDx=0;exitDy=0;entryX=0;entryY=0.5;entryDx=0;entryDy=0;endArrow=diamondThin;endFill=0;startArrow=open;startFill=0;endSize=8;" parent="1" source="Ubtxz8actd3O8gpwUIdc-2" target="vsE9vtKkinqPw54ye6ic-22" edge="1">
          <mxGeometry relative="1" as="geometry" />
        </mxCell>
        <mxCell id="2fKqH-kDjOcJLg-NvFz1-2" value="1...n" style="edgeLabel;html=1;align=center;verticalAlign=middle;resizable=0;points=[];" parent="2fKqH-kDjOcJLg-NvFz1-1" vertex="1" connectable="0">
          <mxGeometry x="0.8667" y="-1" relative="1" as="geometry">
            <mxPoint y="-14" as="offset" />
          </mxGeometry>
        </mxCell>
        <mxCell id="2fKqH-kDjOcJLg-NvFz1-4" value="1" style="edgeLabel;html=1;align=center;verticalAlign=middle;resizable=0;points=[];" parent="2fKqH-kDjOcJLg-NvFz1-1" vertex="1" connectable="0">
          <mxGeometry x="-0.9048" y="-1" relative="1" as="geometry">
            <mxPoint y="10" as="offset" />
          </mxGeometry>
        </mxCell>
        <mxCell id="2fKqH-kDjOcJLg-NvFz1-5" value="contained" style="edgeLabel;html=1;align=center;verticalAlign=middle;resizable=0;points=[];rotation=90;" parent="2fKqH-kDjOcJLg-NvFz1-1" vertex="1" connectable="0">
          <mxGeometry x="0.015" y="-1" relative="1" as="geometry">
            <mxPoint x="11" as="offset" />
          </mxGeometry>
        </mxCell>
        <mxCell id="2fKqH-kDjOcJLg-NvFz1-6" style="edgeStyle=orthogonalEdgeStyle;rounded=0;orthogonalLoop=1;jettySize=auto;html=1;exitX=1;exitY=0.5;exitDx=0;exitDy=0;entryX=0;entryY=0.5;entryDx=0;entryDy=0;endArrow=diamondThin;endFill=0;startArrow=open;startFill=0;endSize=8;" parent="1" source="vsE9vtKkinqPw54ye6ic-27" target="vsE9vtKkinqPw54ye6ic-23" edge="1">
          <mxGeometry relative="1" as="geometry">
            <mxPoint x="290" y="129" as="sourcePoint" />
            <mxPoint x="370" y="337" as="targetPoint" />
          </mxGeometry>
        </mxCell>
        <mxCell id="2fKqH-kDjOcJLg-NvFz1-7" value="3" style="edgeLabel;html=1;align=center;verticalAlign=middle;resizable=0;points=[];" parent="2fKqH-kDjOcJLg-NvFz1-6" vertex="1" connectable="0">
          <mxGeometry x="0.8667" y="-1" relative="1" as="geometry">
            <mxPoint x="-12" y="12" as="offset" />
          </mxGeometry>
        </mxCell>
        <mxCell id="2fKqH-kDjOcJLg-NvFz1-8" value="1" style="edgeLabel;html=1;align=center;verticalAlign=middle;resizable=0;points=[];" parent="2fKqH-kDjOcJLg-NvFz1-6" vertex="1" connectable="0">
          <mxGeometry x="-0.9048" y="-1" relative="1" as="geometry">
            <mxPoint x="8" y="10" as="offset" />
          </mxGeometry>
        </mxCell>
        <mxCell id="2fKqH-kDjOcJLg-NvFz1-9" value="contained" style="edgeLabel;html=1;align=center;verticalAlign=middle;resizable=0;points=[];rotation=0;" parent="2fKqH-kDjOcJLg-NvFz1-6" vertex="1" connectable="0">
          <mxGeometry x="0.015" y="-1" relative="1" as="geometry">
            <mxPoint x="-1" y="16" as="offset" />
          </mxGeometry>
        </mxCell>
        <mxCell id="2fKqH-kDjOcJLg-NvFz1-10" style="edgeStyle=orthogonalEdgeStyle;rounded=0;orthogonalLoop=1;jettySize=auto;html=1;exitX=1;exitY=0.5;exitDx=0;exitDy=0;endArrow=diamondThin;endFill=0;startArrow=open;startFill=0;endSize=8;" parent="1" source="vsE9vtKkinqPw54ye6ic-33" target="7T4GXaZ_U50YjnrrbiTY-3" edge="1">
          <mxGeometry relative="1" as="geometry">
            <mxPoint x="250" y="129" as="sourcePoint" />
            <mxPoint x="370" y="337" as="targetPoint" />
            <Array as="points">
              <mxPoint x="940" y="119" />
              <mxPoint x="940" y="439" />
            </Array>
          </mxGeometry>
        </mxCell>
        <mxCell id="2fKqH-kDjOcJLg-NvFz1-11" value="1...n" style="edgeLabel;html=1;align=center;verticalAlign=middle;resizable=0;points=[];" parent="2fKqH-kDjOcJLg-NvFz1-10" vertex="1" connectable="0">
          <mxGeometry x="0.8667" y="-1" relative="1" as="geometry">
            <mxPoint x="-5" y="12" as="offset" />
          </mxGeometry>
        </mxCell>
        <mxCell id="2fKqH-kDjOcJLg-NvFz1-12" value="1" style="edgeLabel;html=1;align=center;verticalAlign=middle;resizable=0;points=[];" parent="2fKqH-kDjOcJLg-NvFz1-10" vertex="1" connectable="0">
          <mxGeometry x="-0.9048" y="-1" relative="1" as="geometry">
            <mxPoint x="-5" y="10" as="offset" />
          </mxGeometry>
        </mxCell>
        <mxCell id="2fKqH-kDjOcJLg-NvFz1-13" value="contained" style="edgeLabel;html=1;align=center;verticalAlign=middle;resizable=0;points=[];rotation=90;" parent="2fKqH-kDjOcJLg-NvFz1-10" vertex="1" connectable="0">
          <mxGeometry x="0.015" y="-1" relative="1" as="geometry">
            <mxPoint x="11" as="offset" />
          </mxGeometry>
        </mxCell>
        <mxCell id="2fKqH-kDjOcJLg-NvFz1-18" style="edgeStyle=orthogonalEdgeStyle;rounded=0;orthogonalLoop=1;jettySize=auto;html=1;exitX=1;exitY=0.5;exitDx=0;exitDy=0;endArrow=diamondThin;endFill=0;startArrow=open;startFill=0;endSize=8;entryX=0;entryY=0.5;entryDx=0;entryDy=0;" parent="1" source="vsE9vtKkinqPw54ye6ic-9" target="7T4GXaZ_U50YjnrrbiTY-4" edge="1">
          <mxGeometry relative="1" as="geometry">
            <mxPoint x="870" y="129" as="sourcePoint" />
            <mxPoint x="850" y="449" as="targetPoint" />
            <Array as="points">
              <mxPoint x="660" y="119" />
              <mxPoint x="660" y="465" />
            </Array>
          </mxGeometry>
        </mxCell>
        <mxCell id="2fKqH-kDjOcJLg-NvFz1-19" value="1...n" style="edgeLabel;html=1;align=center;verticalAlign=middle;resizable=0;points=[];" parent="2fKqH-kDjOcJLg-NvFz1-18" vertex="1" connectable="0">
          <mxGeometry x="0.8667" y="-1" relative="1" as="geometry">
            <mxPoint x="11" y="12" as="offset" />
          </mxGeometry>
        </mxCell>
        <mxCell id="2fKqH-kDjOcJLg-NvFz1-20" value="1" style="edgeLabel;html=1;align=center;verticalAlign=middle;resizable=0;points=[];" parent="2fKqH-kDjOcJLg-NvFz1-18" vertex="1" connectable="0">
          <mxGeometry x="-0.9048" y="-1" relative="1" as="geometry">
            <mxPoint x="-5" y="10" as="offset" />
          </mxGeometry>
        </mxCell>
        <mxCell id="2fKqH-kDjOcJLg-NvFz1-21" value="contained" style="edgeLabel;html=1;align=center;verticalAlign=middle;resizable=0;points=[];rotation=90;" parent="2fKqH-kDjOcJLg-NvFz1-18" vertex="1" connectable="0">
          <mxGeometry x="0.015" y="-1" relative="1" as="geometry">
            <mxPoint x="11" as="offset" />
          </mxGeometry>
        </mxCell>
      </root>
    </mxGraphModel>
  </diagram>
  <diagram id="SQfm1OCw5CW2K2N-c9j6" name="Usecase diagrams">
    <mxGraphModel dx="1019" dy="648" grid="1" gridSize="10" guides="1" tooltips="1" connect="1" arrows="1" fold="1" page="1" pageScale="1" pageWidth="4681" pageHeight="3300" math="0" shadow="0">
      <root>
        <mxCell id="0" />
        <mxCell id="1" parent="0" />
        <mxCell id="n-EvDiYq_ZVP7B11-NDu-16" value="" style="rounded=0;whiteSpace=wrap;html=1;fillColor=none;" parent="1" vertex="1">
          <mxGeometry x="940" y="70" width="500" height="320" as="geometry" />
        </mxCell>
        <mxCell id="n-EvDiYq_ZVP7B11-NDu-24" value="" style="rounded=0;whiteSpace=wrap;html=1;fillColor=none;" parent="1" vertex="1">
          <mxGeometry x="180" y="430" width="500" height="250" as="geometry" />
        </mxCell>
        <mxCell id="n-EvDiYq_ZVP7B11-NDu-7" value="" style="rounded=0;whiteSpace=wrap;html=1;fillColor=none;" parent="1" vertex="1">
          <mxGeometry x="180" y="100" width="460" height="240" as="geometry" />
        </mxCell>
        <mxCell id="GDmeTt_AMR6rOzRB4K-S-1" style="edgeStyle=orthogonalEdgeStyle;rounded=0;orthogonalLoop=1;jettySize=auto;html=1;exitX=0.5;exitY=0.5;exitDx=0;exitDy=0;exitPerimeter=0;entryX=0;entryY=0.5;entryDx=0;entryDy=0;" parent="1" source="81nKTH43b-ZeDq9AlDmc-1" target="81nKTH43b-ZeDq9AlDmc-3" edge="1">
          <mxGeometry relative="1" as="geometry" />
        </mxCell>
        <mxCell id="81nKTH43b-ZeDq9AlDmc-1" value="User" style="shape=umlActor;verticalLabelPosition=bottom;verticalAlign=top;" parent="1" vertex="1">
          <mxGeometry x="60" y="180" width="40" height="80" as="geometry" />
        </mxCell>
        <mxCell id="81nKTH43b-ZeDq9AlDmc-3" value="Contestant registration" style="ellipse;whiteSpace=wrap;html=1;" parent="1" vertex="1">
          <mxGeometry x="220" y="200" width="120" height="40" as="geometry" />
        </mxCell>
        <mxCell id="81nKTH43b-ZeDq9AlDmc-4" value="Create Contestant Profile" style="ellipse;whiteSpace=wrap;html=1;" parent="1" vertex="1">
          <mxGeometry x="460" y="270" width="160" height="40" as="geometry" />
        </mxCell>
        <mxCell id="81nKTH43b-ZeDq9AlDmc-5" value="Team Registration" style="ellipse;whiteSpace=wrap;html=1;" parent="1" vertex="1">
          <mxGeometry x="980" y="200" width="120" height="60" as="geometry" />
        </mxCell>
        <mxCell id="81nKTH43b-ZeDq9AlDmc-6" value="Contest Participation" style="ellipse;whiteSpace=wrap;html=1;" parent="1" vertex="1">
          <mxGeometry x="220" y="530" width="120" height="50" as="geometry" />
        </mxCell>
        <mxCell id="81nKTH43b-ZeDq9AlDmc-7" value="Find contestants" style="ellipse;whiteSpace=wrap;html=1;" parent="1" vertex="1">
          <mxGeometry x="1260" y="100" width="160" height="60" as="geometry" />
        </mxCell>
        <mxCell id="81nKTH43b-ZeDq9AlDmc-8" value="Find available contests" style="ellipse;whiteSpace=wrap;html=1;" parent="1" vertex="1">
          <mxGeometry x="500" y="450" width="160" height="50" as="geometry" />
        </mxCell>
        <mxCell id="GDmeTt_AMR6rOzRB4K-S-4" value="&amp;lt;&amp;lt;include&amp;gt;&amp;gt;" style="html=1;verticalAlign=bottom;labelBackgroundColor=none;endArrow=open;endFill=0;dashed=1;rounded=0;exitX=0.5;exitY=0;exitDx=0;exitDy=0;entryX=0;entryY=0.5;entryDx=0;entryDy=0;" parent="1" source="81nKTH43b-ZeDq9AlDmc-6" target="81nKTH43b-ZeDq9AlDmc-8" edge="1">
          <mxGeometry width="160" relative="1" as="geometry">
            <mxPoint x="250" y="255" as="sourcePoint" />
            <mxPoint x="410" y="255" as="targetPoint" />
          </mxGeometry>
        </mxCell>
        <mxCell id="GDmeTt_AMR6rOzRB4K-S-5" value="&amp;lt;&amp;lt;include&amp;gt;&amp;gt;" style="html=1;verticalAlign=bottom;labelBackgroundColor=none;endArrow=open;endFill=0;dashed=1;rounded=0;exitX=0.5;exitY=1;exitDx=0;exitDy=0;entryX=0;entryY=0.5;entryDx=0;entryDy=0;" parent="1" source="81nKTH43b-ZeDq9AlDmc-3" target="81nKTH43b-ZeDq9AlDmc-4" edge="1">
          <mxGeometry width="160" relative="1" as="geometry">
            <mxPoint x="260" y="170" as="sourcePoint" />
            <mxPoint x="420" y="170" as="targetPoint" />
          </mxGeometry>
        </mxCell>
        <mxCell id="GDmeTt_AMR6rOzRB4K-S-7" value="&amp;lt;&amp;lt;include&amp;gt;&amp;gt;" style="html=1;verticalAlign=bottom;labelBackgroundColor=none;endArrow=open;endFill=0;dashed=1;rounded=0;exitX=0.5;exitY=0;exitDx=0;exitDy=0;entryX=0;entryY=0.5;entryDx=0;entryDy=0;" parent="1" source="81nKTH43b-ZeDq9AlDmc-5" target="81nKTH43b-ZeDq9AlDmc-7" edge="1">
          <mxGeometry width="160" relative="1" as="geometry">
            <mxPoint x="1020" y="45" as="sourcePoint" />
            <mxPoint x="1180" y="45" as="targetPoint" />
          </mxGeometry>
        </mxCell>
        <mxCell id="GDmeTt_AMR6rOzRB4K-S-8" value="Validate email, username &lt;br&gt;and student ID" style="ellipse;whiteSpace=wrap;html=1;" parent="1" vertex="1">
          <mxGeometry x="460" y="190" width="160" height="60" as="geometry" />
        </mxCell>
        <mxCell id="n-EvDiYq_ZVP7B11-NDu-2" value="Find affiliation" style="ellipse;whiteSpace=wrap;html=1;" parent="1" vertex="1">
          <mxGeometry x="460" y="120" width="160" height="40" as="geometry" />
        </mxCell>
        <mxCell id="n-EvDiYq_ZVP7B11-NDu-3" value="&amp;lt;&amp;lt;include&amp;gt;&amp;gt;" style="html=1;verticalAlign=bottom;labelBackgroundColor=none;endArrow=open;endFill=0;dashed=1;rounded=0;exitX=1;exitY=0.5;exitDx=0;exitDy=0;entryX=0;entryY=0.5;entryDx=0;entryDy=0;" parent="1" source="81nKTH43b-ZeDq9AlDmc-3" target="GDmeTt_AMR6rOzRB4K-S-8" edge="1">
          <mxGeometry width="160" relative="1" as="geometry">
            <mxPoint x="270" y="90" as="sourcePoint" />
            <mxPoint x="412" y="186" as="targetPoint" />
          </mxGeometry>
        </mxCell>
        <mxCell id="n-EvDiYq_ZVP7B11-NDu-4" value="&amp;lt;&amp;lt;include&amp;gt;&amp;gt;" style="html=1;verticalAlign=bottom;labelBackgroundColor=none;endArrow=open;endFill=0;dashed=1;rounded=0;exitX=0.5;exitY=0;exitDx=0;exitDy=0;entryX=0;entryY=0.5;entryDx=0;entryDy=0;" parent="1" source="81nKTH43b-ZeDq9AlDmc-3" target="n-EvDiYq_ZVP7B11-NDu-2" edge="1">
          <mxGeometry width="160" relative="1" as="geometry">
            <mxPoint x="332" y="244" as="sourcePoint" />
            <mxPoint x="470" y="270" as="targetPoint" />
          </mxGeometry>
        </mxCell>
        <mxCell id="n-EvDiYq_ZVP7B11-NDu-8" value="Contestant registration usecase" style="text;html=1;strokeColor=none;fillColor=none;align=center;verticalAlign=middle;whiteSpace=wrap;rounded=0;" parent="1" vertex="1">
          <mxGeometry x="185" y="110" width="180" height="30" as="geometry" />
        </mxCell>
        <mxCell id="n-EvDiYq_ZVP7B11-NDu-9" style="edgeStyle=orthogonalEdgeStyle;rounded=0;orthogonalLoop=1;jettySize=auto;html=1;exitX=0.5;exitY=1;exitDx=0;exitDy=0;" parent="1" source="n-EvDiYq_ZVP7B11-NDu-7" target="n-EvDiYq_ZVP7B11-NDu-7" edge="1">
          <mxGeometry relative="1" as="geometry" />
        </mxCell>
        <mxCell id="n-EvDiYq_ZVP7B11-NDu-15" style="edgeStyle=orthogonalEdgeStyle;rounded=0;orthogonalLoop=1;jettySize=auto;html=1;exitX=0.5;exitY=0.5;exitDx=0;exitDy=0;exitPerimeter=0;entryX=0;entryY=0.5;entryDx=0;entryDy=0;" parent="1" source="n-EvDiYq_ZVP7B11-NDu-10" target="81nKTH43b-ZeDq9AlDmc-5" edge="1">
          <mxGeometry relative="1" as="geometry" />
        </mxCell>
        <mxCell id="n-EvDiYq_ZVP7B11-NDu-10" value="Contestant" style="shape=umlActor;verticalLabelPosition=bottom;verticalAlign=top;" parent="1" vertex="1">
          <mxGeometry x="820" y="190" width="40" height="80" as="geometry" />
        </mxCell>
        <mxCell id="n-EvDiYq_ZVP7B11-NDu-11" value="Validate registered contestants" style="ellipse;whiteSpace=wrap;html=1;" parent="1" vertex="1">
          <mxGeometry x="1260" y="200" width="160" height="60" as="geometry" />
        </mxCell>
        <mxCell id="n-EvDiYq_ZVP7B11-NDu-12" value="Create team with &lt;br&gt;given contestants" style="ellipse;whiteSpace=wrap;html=1;" parent="1" vertex="1">
          <mxGeometry x="1260" y="300" width="160" height="60" as="geometry" />
        </mxCell>
        <mxCell id="n-EvDiYq_ZVP7B11-NDu-13" value="&amp;lt;&amp;lt;include&amp;gt;&amp;gt;" style="html=1;verticalAlign=bottom;labelBackgroundColor=none;endArrow=open;endFill=0;dashed=1;rounded=0;exitX=0.5;exitY=1;exitDx=0;exitDy=0;entryX=0;entryY=0.5;entryDx=0;entryDy=0;" parent="1" source="81nKTH43b-ZeDq9AlDmc-5" target="n-EvDiYq_ZVP7B11-NDu-12" edge="1">
          <mxGeometry width="160" relative="1" as="geometry">
            <mxPoint x="1050" y="210" as="sourcePoint" />
            <mxPoint x="1270" y="140" as="targetPoint" />
          </mxGeometry>
        </mxCell>
        <mxCell id="n-EvDiYq_ZVP7B11-NDu-14" value="&amp;lt;&amp;lt;include&amp;gt;&amp;gt;" style="html=1;verticalAlign=bottom;labelBackgroundColor=none;endArrow=open;endFill=0;dashed=1;rounded=0;exitX=1;exitY=0.5;exitDx=0;exitDy=0;entryX=0;entryY=0.5;entryDx=0;entryDy=0;" parent="1" source="81nKTH43b-ZeDq9AlDmc-5" target="n-EvDiYq_ZVP7B11-NDu-11" edge="1">
          <mxGeometry width="160" relative="1" as="geometry">
            <mxPoint x="1050" y="210" as="sourcePoint" />
            <mxPoint x="1270" y="140" as="targetPoint" />
          </mxGeometry>
        </mxCell>
        <mxCell id="n-EvDiYq_ZVP7B11-NDu-17" value="Team registration usecase" style="text;html=1;strokeColor=none;fillColor=none;align=center;verticalAlign=middle;whiteSpace=wrap;rounded=0;" parent="1" vertex="1">
          <mxGeometry x="950" y="80" width="160" height="30" as="geometry" />
        </mxCell>
        <mxCell id="n-EvDiYq_ZVP7B11-NDu-19" style="edgeStyle=orthogonalEdgeStyle;rounded=0;orthogonalLoop=1;jettySize=auto;html=1;exitX=0.5;exitY=0.5;exitDx=0;exitDy=0;exitPerimeter=0;entryX=0;entryY=0.5;entryDx=0;entryDy=0;" parent="1" source="n-EvDiYq_ZVP7B11-NDu-18" target="81nKTH43b-ZeDq9AlDmc-6" edge="1">
          <mxGeometry relative="1" as="geometry" />
        </mxCell>
        <mxCell id="n-EvDiYq_ZVP7B11-NDu-18" value="Contestant" style="shape=umlActor;verticalLabelPosition=bottom;verticalAlign=top;" parent="1" vertex="1">
          <mxGeometry x="60" y="515" width="40" height="80" as="geometry" />
        </mxCell>
        <mxCell id="n-EvDiYq_ZVP7B11-NDu-20" value="Create contest registration" style="ellipse;whiteSpace=wrap;html=1;" parent="1" vertex="1">
          <mxGeometry x="500" y="610" width="160" height="50" as="geometry" />
        </mxCell>
        <mxCell id="n-EvDiYq_ZVP7B11-NDu-21" value="Validate participated contestant" style="ellipse;whiteSpace=wrap;html=1;" parent="1" vertex="1">
          <mxGeometry x="500" y="530" width="160" height="50" as="geometry" />
        </mxCell>
        <mxCell id="n-EvDiYq_ZVP7B11-NDu-22" value="&amp;lt;&amp;lt;include&amp;gt;&amp;gt;" style="html=1;verticalAlign=bottom;labelBackgroundColor=none;endArrow=open;endFill=0;dashed=1;rounded=0;exitX=0.494;exitY=1.044;exitDx=0;exitDy=0;entryX=0;entryY=0.5;entryDx=0;entryDy=0;exitPerimeter=0;" parent="1" source="81nKTH43b-ZeDq9AlDmc-6" target="n-EvDiYq_ZVP7B11-NDu-20" edge="1">
          <mxGeometry width="160" relative="1" as="geometry">
            <mxPoint x="290" y="540" as="sourcePoint" />
            <mxPoint x="510" y="485" as="targetPoint" />
          </mxGeometry>
        </mxCell>
        <mxCell id="n-EvDiYq_ZVP7B11-NDu-23" value="&amp;lt;&amp;lt;include&amp;gt;&amp;gt;" style="html=1;verticalAlign=bottom;labelBackgroundColor=none;endArrow=open;endFill=0;dashed=1;rounded=0;exitX=1;exitY=0.5;exitDx=0;exitDy=0;entryX=0;entryY=0.5;entryDx=0;entryDy=0;" parent="1" source="81nKTH43b-ZeDq9AlDmc-6" target="n-EvDiYq_ZVP7B11-NDu-21" edge="1">
          <mxGeometry width="160" relative="1" as="geometry">
            <mxPoint x="290" y="540" as="sourcePoint" />
            <mxPoint x="510" y="485" as="targetPoint" />
          </mxGeometry>
        </mxCell>
        <mxCell id="n-EvDiYq_ZVP7B11-NDu-25" value="Contest participation usecase" style="text;html=1;strokeColor=none;fillColor=none;align=center;verticalAlign=middle;whiteSpace=wrap;rounded=0;" parent="1" vertex="1">
          <mxGeometry x="190" y="440" width="170" height="30" as="geometry" />
        </mxCell>
      </root>
    </mxGraphModel>
  </diagram>
  <diagram id="k6N8JoZqMunBXGu1PUVY" name="Sequence diagrams">
    <mxGraphModel dx="1032" dy="763" grid="1" gridSize="10" guides="1" tooltips="1" connect="1" arrows="1" fold="1" page="1" pageScale="1" pageWidth="4681" pageHeight="3300" math="0" shadow="0">
      <root>
        <mxCell id="0" />
        <mxCell id="1" parent="0" />
        <mxCell id="g-hYqG9BcbnA9Z1bDn1v-1" value="" style="shape=umlLifeline;perimeter=lifelinePerimeter;whiteSpace=wrap;html=1;container=1;dropTarget=0;collapsible=0;recursiveResize=0;outlineConnect=0;portConstraint=eastwest;newEdgeStyle={&quot;curved&quot;:0,&quot;rounded&quot;:0};participant=umlActor;" vertex="1" parent="1">
          <mxGeometry x="350" y="770" width="20" height="740" as="geometry" />
        </mxCell>
        <mxCell id="g-hYqG9BcbnA9Z1bDn1v-18" value="Contestant registration form" style="shape=umlLifeline;perimeter=lifelinePerimeter;whiteSpace=wrap;html=1;container=1;dropTarget=0;collapsible=0;recursiveResize=0;outlineConnect=0;portConstraint=eastwest;newEdgeStyle={&quot;edgeStyle&quot;:&quot;elbowEdgeStyle&quot;,&quot;elbow&quot;:&quot;vertical&quot;,&quot;curved&quot;:0,&quot;rounded&quot;:0};fillColor=#E5CCFF;strokeColor=#CC99FF;fontColor=#000000;" vertex="1" parent="1">
          <mxGeometry x="470" y="770" width="100" height="740" as="geometry" />
        </mxCell>
        <mxCell id="g-hYqG9BcbnA9Z1bDn1v-19" value="Authentication controller" style="shape=umlLifeline;perimeter=lifelinePerimeter;whiteSpace=wrap;html=1;container=1;dropTarget=0;collapsible=0;recursiveResize=0;outlineConnect=0;portConstraint=eastwest;newEdgeStyle={&quot;edgeStyle&quot;:&quot;elbowEdgeStyle&quot;,&quot;elbow&quot;:&quot;vertical&quot;,&quot;curved&quot;:0,&quot;rounded&quot;:0};fillColor=#E5CCFF;strokeColor=#CC99FF;fontColor=#000000;" vertex="1" parent="1">
          <mxGeometry x="630" y="770" width="100" height="740" as="geometry" />
        </mxCell>
        <mxCell id="g-hYqG9BcbnA9Z1bDn1v-20" value="Contestant service" style="shape=umlLifeline;perimeter=lifelinePerimeter;whiteSpace=wrap;html=1;container=1;dropTarget=0;collapsible=0;recursiveResize=0;outlineConnect=0;portConstraint=eastwest;newEdgeStyle={&quot;edgeStyle&quot;:&quot;elbowEdgeStyle&quot;,&quot;elbow&quot;:&quot;vertical&quot;,&quot;curved&quot;:0,&quot;rounded&quot;:0};fillColor=#E5CCFF;strokeColor=#CC99FF;fontColor=#000000;" vertex="1" parent="1">
          <mxGeometry x="790" y="770" width="100" height="740" as="geometry" />
        </mxCell>
        <mxCell id="g-hYqG9BcbnA9Z1bDn1v-21" value="Affiliation service" style="shape=umlLifeline;perimeter=lifelinePerimeter;whiteSpace=wrap;html=1;container=1;dropTarget=0;collapsible=0;recursiveResize=0;outlineConnect=0;portConstraint=eastwest;newEdgeStyle={&quot;edgeStyle&quot;:&quot;elbowEdgeStyle&quot;,&quot;elbow&quot;:&quot;vertical&quot;,&quot;curved&quot;:0,&quot;rounded&quot;:0};fillColor=#E5CCFF;strokeColor=#CC99FF;fontColor=#000000;" vertex="1" parent="1">
          <mxGeometry x="950" y="770" width="100" height="740" as="geometry" />
        </mxCell>
        <mxCell id="g-hYqG9BcbnA9Z1bDn1v-22" value="" style="endArrow=classic;html=1;rounded=0;" edge="1" parent="1">
          <mxGeometry width="50" height="50" relative="1" as="geometry">
            <mxPoint x="360.3294594594594" y="870" as="sourcePoint" />
            <mxPoint x="520.1" y="870" as="targetPoint" />
          </mxGeometry>
        </mxCell>
        <mxCell id="g-hYqG9BcbnA9Z1bDn1v-23" value="Open form in web app" style="edgeLabel;html=1;align=center;verticalAlign=middle;resizable=0;points=[];" vertex="1" connectable="0" parent="g-hYqG9BcbnA9Z1bDn1v-22">
          <mxGeometry x="-0.0069" y="1" relative="1" as="geometry">
            <mxPoint x="2" y="-9" as="offset" />
          </mxGeometry>
        </mxCell>
        <mxCell id="g-hYqG9BcbnA9Z1bDn1v-24" value="" style="endArrow=classic;html=1;rounded=0;" edge="1" parent="1">
          <mxGeometry width="50" height="50" relative="1" as="geometry">
            <mxPoint x="680.0736842105263" y="910" as="sourcePoint" />
            <mxPoint x="999.6700000000001" y="910" as="targetPoint" />
          </mxGeometry>
        </mxCell>
        <mxCell id="g-hYqG9BcbnA9Z1bDn1v-25" value="Find affiliations" style="edgeLabel;html=1;align=center;verticalAlign=middle;resizable=0;points=[];" vertex="1" connectable="0" parent="g-hYqG9BcbnA9Z1bDn1v-24">
          <mxGeometry x="-0.0069" y="1" relative="1" as="geometry">
            <mxPoint x="2" y="-9" as="offset" />
          </mxGeometry>
        </mxCell>
        <mxCell id="g-hYqG9BcbnA9Z1bDn1v-26" value="" style="endArrow=none;html=1;rounded=0;dashed=1;startArrow=block;startFill=1;endFill=0;" edge="1" parent="1">
          <mxGeometry width="50" height="50" relative="1" as="geometry">
            <mxPoint x="680.26" y="949.6400000000001" as="sourcePoint" />
            <mxPoint x="999.76" y="949.6400000000001" as="targetPoint" />
            <Array as="points">
              <mxPoint x="740.26" y="949.6400000000001" />
            </Array>
          </mxGeometry>
        </mxCell>
        <mxCell id="g-hYqG9BcbnA9Z1bDn1v-27" value="Affiliation list" style="edgeLabel;html=1;align=center;verticalAlign=middle;resizable=0;points=[];" vertex="1" connectable="0" parent="g-hYqG9BcbnA9Z1bDn1v-26">
          <mxGeometry x="-0.0069" y="1" relative="1" as="geometry">
            <mxPoint x="2" y="-9" as="offset" />
          </mxGeometry>
        </mxCell>
        <mxCell id="g-hYqG9BcbnA9Z1bDn1v-28" value="" style="endArrow=none;html=1;rounded=0;dashed=1;startArrow=block;startFill=1;endFill=0;" edge="1" parent="1">
          <mxGeometry width="50" height="50" relative="1" as="geometry">
            <mxPoint x="360.23945945945934" y="989.6400000000001" as="sourcePoint" />
            <mxPoint x="520.01" y="989.6400000000001" as="targetPoint" />
          </mxGeometry>
        </mxCell>
        <mxCell id="g-hYqG9BcbnA9Z1bDn1v-29" value="Show form with &lt;br&gt;affliations as options" style="edgeLabel;html=1;align=center;verticalAlign=middle;resizable=0;points=[];" vertex="1" connectable="0" parent="g-hYqG9BcbnA9Z1bDn1v-28">
          <mxGeometry x="-0.0069" y="1" relative="1" as="geometry">
            <mxPoint x="1" y="-19" as="offset" />
          </mxGeometry>
        </mxCell>
        <mxCell id="g-hYqG9BcbnA9Z1bDn1v-30" value="" style="endArrow=classic;html=1;rounded=0;" edge="1" parent="1">
          <mxGeometry width="50" height="50" relative="1" as="geometry">
            <mxPoint x="360.22945945945935" y="1030" as="sourcePoint" />
            <mxPoint x="520" y="1030" as="targetPoint" />
          </mxGeometry>
        </mxCell>
        <mxCell id="g-hYqG9BcbnA9Z1bDn1v-31" value="Fill out form information" style="edgeLabel;html=1;align=center;verticalAlign=middle;resizable=0;points=[];" vertex="1" connectable="0" parent="g-hYqG9BcbnA9Z1bDn1v-30">
          <mxGeometry x="-0.0069" y="1" relative="1" as="geometry">
            <mxPoint x="2" y="-9" as="offset" />
          </mxGeometry>
        </mxCell>
        <mxCell id="g-hYqG9BcbnA9Z1bDn1v-32" value="" style="endArrow=classic;html=1;rounded=0;" edge="1" parent="1">
          <mxGeometry width="50" height="50" relative="1" as="geometry">
            <mxPoint x="519.9994594594593" y="1050" as="sourcePoint" />
            <mxPoint x="679.77" y="1050" as="targetPoint" />
          </mxGeometry>
        </mxCell>
        <mxCell id="g-hYqG9BcbnA9Z1bDn1v-33" value="Send contestant &lt;br&gt;registration information" style="edgeLabel;html=1;align=center;verticalAlign=middle;resizable=0;points=[];" vertex="1" connectable="0" parent="g-hYqG9BcbnA9Z1bDn1v-32">
          <mxGeometry x="-0.0069" y="1" relative="1" as="geometry">
            <mxPoint x="2" y="-19" as="offset" />
          </mxGeometry>
        </mxCell>
        <mxCell id="g-hYqG9BcbnA9Z1bDn1v-34" value="" style="endArrow=classic;html=1;rounded=0;" edge="1" parent="1">
          <mxGeometry width="50" height="50" relative="1" as="geometry">
            <mxPoint x="679.9994594594593" y="1069.51" as="sourcePoint" />
            <mxPoint x="839.77" y="1069.51" as="targetPoint" />
          </mxGeometry>
        </mxCell>
        <mxCell id="g-hYqG9BcbnA9Z1bDn1v-35" value="Request unique &lt;br&gt;fields validation" style="edgeLabel;html=1;align=center;verticalAlign=middle;resizable=0;points=[];" vertex="1" connectable="0" parent="g-hYqG9BcbnA9Z1bDn1v-34">
          <mxGeometry x="-0.0069" y="1" relative="1" as="geometry">
            <mxPoint x="2" y="-19" as="offset" />
          </mxGeometry>
        </mxCell>
        <mxCell id="g-hYqG9BcbnA9Z1bDn1v-68" value="User" style="text;html=1;strokeColor=none;fillColor=none;align=center;verticalAlign=middle;whiteSpace=wrap;rounded=0;" vertex="1" parent="1">
          <mxGeometry x="330" y="740" width="60" height="30" as="geometry" />
        </mxCell>
        <mxCell id="g-hYqG9BcbnA9Z1bDn1v-69" value="&lt;font color=&quot;#000000&quot;&gt;alt&lt;/font&gt;" style="shape=umlFrame;whiteSpace=wrap;html=1;pointerEvents=0;recursiveResize=0;container=1;collapsible=0;width=40;fillColor=#E5CCFF;strokeColor=#CC99FF;height=20;dashed=1;dashPattern=1 1;" vertex="1" parent="1">
          <mxGeometry x="320" y="1090" width="720" height="400" as="geometry" />
        </mxCell>
        <mxCell id="g-hYqG9BcbnA9Z1bDn1v-86" value="&lt;font color=&quot;#000000&quot;&gt;alt&lt;/font&gt;" style="shape=umlFrame;whiteSpace=wrap;html=1;pointerEvents=0;recursiveResize=0;container=1;collapsible=0;width=40;height=20;fillColor=#E5CCFF;strokeColor=#CC99FF;dashed=1;dashPattern=1 1;" vertex="1" parent="g-hYqG9BcbnA9Z1bDn1v-69">
          <mxGeometry x="20" y="180" width="680" height="200" as="geometry" />
        </mxCell>
        <mxCell id="g-hYqG9BcbnA9Z1bDn1v-54" value="" style="endArrow=none;html=1;rounded=0;dashed=1;startArrow=block;startFill=1;endFill=0;" edge="1" parent="g-hYqG9BcbnA9Z1bDn1v-86">
          <mxGeometry width="50" height="50" relative="1" as="geometry">
            <mxPoint x="340.11945945945934" y="40" as="sourcePoint" />
            <mxPoint x="499.89" y="40" as="targetPoint" />
          </mxGeometry>
        </mxCell>
        <mxCell id="g-hYqG9BcbnA9Z1bDn1v-55" value="Creation error result" style="edgeLabel;html=1;align=center;verticalAlign=middle;resizable=0;points=[];" vertex="1" connectable="0" parent="g-hYqG9BcbnA9Z1bDn1v-54">
          <mxGeometry x="-0.0069" y="1" relative="1" as="geometry">
            <mxPoint x="2" y="-9" as="offset" />
          </mxGeometry>
        </mxCell>
        <mxCell id="g-hYqG9BcbnA9Z1bDn1v-56" value="" style="endArrow=none;html=1;rounded=0;dashed=1;startArrow=block;startFill=1;endFill=0;" edge="1" parent="g-hYqG9BcbnA9Z1bDn1v-86">
          <mxGeometry width="50" height="50" relative="1" as="geometry">
            <mxPoint x="180.11945945945934" y="60" as="sourcePoint" />
            <mxPoint x="339.89" y="60" as="targetPoint" />
          </mxGeometry>
        </mxCell>
        <mxCell id="g-hYqG9BcbnA9Z1bDn1v-57" value="Send error response" style="edgeLabel;html=1;align=center;verticalAlign=middle;resizable=0;points=[];" vertex="1" connectable="0" parent="g-hYqG9BcbnA9Z1bDn1v-56">
          <mxGeometry x="-0.0069" y="1" relative="1" as="geometry">
            <mxPoint x="2" y="-9" as="offset" />
          </mxGeometry>
        </mxCell>
        <mxCell id="g-hYqG9BcbnA9Z1bDn1v-58" value="" style="endArrow=none;html=1;rounded=0;dashed=1;startArrow=block;startFill=1;endFill=0;" edge="1" parent="g-hYqG9BcbnA9Z1bDn1v-86">
          <mxGeometry width="50" height="50" relative="1" as="geometry">
            <mxPoint x="19.99945945945933" y="80" as="sourcePoint" />
            <mxPoint x="179.76999999999998" y="80" as="targetPoint" />
          </mxGeometry>
        </mxCell>
        <mxCell id="g-hYqG9BcbnA9Z1bDn1v-59" value="Show error response" style="edgeLabel;html=1;align=center;verticalAlign=middle;resizable=0;points=[];" vertex="1" connectable="0" parent="g-hYqG9BcbnA9Z1bDn1v-58">
          <mxGeometry x="-0.0069" y="1" relative="1" as="geometry">
            <mxPoint x="2" y="-9" as="offset" />
          </mxGeometry>
        </mxCell>
        <mxCell id="g-hYqG9BcbnA9Z1bDn1v-90" value="&lt;font style=&quot;font-size: 10px;&quot;&gt;[Contestant creation failed]&lt;/font&gt;" style="text;html=1;strokeColor=none;fillColor=none;align=center;verticalAlign=middle;whiteSpace=wrap;rounded=0;" vertex="1" parent="g-hYqG9BcbnA9Z1bDn1v-86">
          <mxGeometry x="272.5" width="135" height="20" as="geometry" />
        </mxCell>
        <mxCell id="g-hYqG9BcbnA9Z1bDn1v-91" value="&lt;font style=&quot;font-size: 10px;&quot;&gt;[Contestant creation success]&lt;/font&gt;" style="text;html=1;strokeColor=none;fillColor=none;align=center;verticalAlign=middle;whiteSpace=wrap;rounded=0;" vertex="1" parent="g-hYqG9BcbnA9Z1bDn1v-86">
          <mxGeometry x="272.5" y="100" width="135" height="20" as="geometry" />
        </mxCell>
        <mxCell id="g-hYqG9BcbnA9Z1bDn1v-87" value="" style="endArrow=none;html=1;rounded=0;exitX=-0.002;exitY=0.552;exitDx=0;exitDy=0;exitPerimeter=0;entryX=1;entryY=0.503;entryDx=0;entryDy=0;entryPerimeter=0;dashed=1;dashPattern=1 1;fillColor=#d0cee2;strokeColor=#CC99FF;" edge="1" parent="g-hYqG9BcbnA9Z1bDn1v-86" target="g-hYqG9BcbnA9Z1bDn1v-86">
          <mxGeometry width="50" height="50" relative="1" as="geometry">
            <mxPoint x="-0.7599999999999802" y="100.88000000000005" as="sourcePoint" />
            <mxPoint x="759.9999999999998" y="100.00000000000017" as="targetPoint" />
          </mxGeometry>
        </mxCell>
        <mxCell id="g-hYqG9BcbnA9Z1bDn1v-62" value="" style="endArrow=none;html=1;rounded=0;dashed=1;startArrow=block;startFill=1;endFill=0;" edge="1" parent="g-hYqG9BcbnA9Z1bDn1v-86">
          <mxGeometry width="50" height="50" relative="1" as="geometry">
            <mxPoint x="339.99945945945933" y="140" as="sourcePoint" />
            <mxPoint x="499.77" y="140" as="targetPoint" />
          </mxGeometry>
        </mxCell>
        <mxCell id="g-hYqG9BcbnA9Z1bDn1v-63" value="Creation success result" style="edgeLabel;html=1;align=center;verticalAlign=middle;resizable=0;points=[];" vertex="1" connectable="0" parent="g-hYqG9BcbnA9Z1bDn1v-62">
          <mxGeometry x="-0.0069" y="1" relative="1" as="geometry">
            <mxPoint x="2" y="-9" as="offset" />
          </mxGeometry>
        </mxCell>
        <mxCell id="g-hYqG9BcbnA9Z1bDn1v-64" value="" style="endArrow=none;html=1;rounded=0;dashed=1;startArrow=block;startFill=1;endFill=0;" edge="1" parent="g-hYqG9BcbnA9Z1bDn1v-86">
          <mxGeometry width="50" height="50" relative="1" as="geometry">
            <mxPoint x="179.99945945945933" y="160" as="sourcePoint" />
            <mxPoint x="339.77" y="160" as="targetPoint" />
          </mxGeometry>
        </mxCell>
        <mxCell id="g-hYqG9BcbnA9Z1bDn1v-65" value="Send success response" style="edgeLabel;html=1;align=center;verticalAlign=middle;resizable=0;points=[];" vertex="1" connectable="0" parent="g-hYqG9BcbnA9Z1bDn1v-64">
          <mxGeometry x="-0.0069" y="1" relative="1" as="geometry">
            <mxPoint x="2" y="-9" as="offset" />
          </mxGeometry>
        </mxCell>
        <mxCell id="g-hYqG9BcbnA9Z1bDn1v-66" value="" style="endArrow=none;html=1;rounded=0;dashed=1;startArrow=block;startFill=1;endFill=0;" edge="1" parent="g-hYqG9BcbnA9Z1bDn1v-86">
          <mxGeometry width="50" height="50" relative="1" as="geometry">
            <mxPoint x="19.99945945945933" y="180" as="sourcePoint" />
            <mxPoint x="179.76999999999998" y="180" as="targetPoint" />
          </mxGeometry>
        </mxCell>
        <mxCell id="g-hYqG9BcbnA9Z1bDn1v-67" value="Show success response" style="edgeLabel;html=1;align=center;verticalAlign=middle;resizable=0;points=[];" vertex="1" connectable="0" parent="g-hYqG9BcbnA9Z1bDn1v-66">
          <mxGeometry x="-0.0069" y="1" relative="1" as="geometry">
            <mxPoint x="2" y="-9" as="offset" />
          </mxGeometry>
        </mxCell>
        <mxCell id="g-hYqG9BcbnA9Z1bDn1v-88" value="&lt;font style=&quot;font-size: 10px;&quot;&gt;[Invalid fields]&lt;/font&gt;" style="text;html=1;strokeColor=none;fillColor=none;align=center;verticalAlign=middle;whiteSpace=wrap;rounded=0;" vertex="1" parent="g-hYqG9BcbnA9Z1bDn1v-69">
          <mxGeometry x="315" width="90" height="20" as="geometry" />
        </mxCell>
        <mxCell id="g-hYqG9BcbnA9Z1bDn1v-89" value="&lt;font style=&quot;font-size: 10px;&quot;&gt;[Valid fields]&lt;/font&gt;" style="text;html=1;strokeColor=none;fillColor=none;align=center;verticalAlign=middle;whiteSpace=wrap;rounded=0;" vertex="1" parent="g-hYqG9BcbnA9Z1bDn1v-69">
          <mxGeometry x="315" y="110" width="90" height="10" as="geometry" />
        </mxCell>
        <mxCell id="g-hYqG9BcbnA9Z1bDn1v-36" value="" style="endArrow=none;html=1;rounded=0;dashed=1;startArrow=block;startFill=1;endFill=0;" edge="1" parent="g-hYqG9BcbnA9Z1bDn1v-69">
          <mxGeometry width="50" height="50" relative="1" as="geometry">
            <mxPoint x="359.99945945945933" y="40" as="sourcePoint" />
            <mxPoint x="519.77" y="40" as="targetPoint" />
          </mxGeometry>
        </mxCell>
        <mxCell id="g-hYqG9BcbnA9Z1bDn1v-37" value="Falied validation result" style="edgeLabel;html=1;align=center;verticalAlign=middle;resizable=0;points=[];" vertex="1" connectable="0" parent="g-hYqG9BcbnA9Z1bDn1v-36">
          <mxGeometry x="-0.0069" y="1" relative="1" as="geometry">
            <mxPoint x="2" y="-9" as="offset" />
          </mxGeometry>
        </mxCell>
        <mxCell id="g-hYqG9BcbnA9Z1bDn1v-38" value="" style="endArrow=none;html=1;rounded=0;dashed=1;startArrow=block;startFill=1;endFill=0;" edge="1" parent="g-hYqG9BcbnA9Z1bDn1v-69">
          <mxGeometry width="50" height="50" relative="1" as="geometry">
            <mxPoint x="199.99945945945933" y="60" as="sourcePoint" />
            <mxPoint x="359.77" y="60" as="targetPoint" />
          </mxGeometry>
        </mxCell>
        <mxCell id="g-hYqG9BcbnA9Z1bDn1v-39" value="Send error response" style="edgeLabel;html=1;align=center;verticalAlign=middle;resizable=0;points=[];" vertex="1" connectable="0" parent="g-hYqG9BcbnA9Z1bDn1v-38">
          <mxGeometry x="-0.0069" y="1" relative="1" as="geometry">
            <mxPoint x="2" y="-9" as="offset" />
          </mxGeometry>
        </mxCell>
        <mxCell id="g-hYqG9BcbnA9Z1bDn1v-40" value="" style="endArrow=none;html=1;rounded=0;dashed=1;startArrow=block;startFill=1;endFill=0;" edge="1" parent="g-hYqG9BcbnA9Z1bDn1v-69">
          <mxGeometry width="50" height="50" relative="1" as="geometry">
            <mxPoint x="39.99945945945933" y="80" as="sourcePoint" />
            <mxPoint x="199.76999999999998" y="80" as="targetPoint" />
          </mxGeometry>
        </mxCell>
        <mxCell id="g-hYqG9BcbnA9Z1bDn1v-41" value="Show error response" style="edgeLabel;html=1;align=center;verticalAlign=middle;resizable=0;points=[];" vertex="1" connectable="0" parent="g-hYqG9BcbnA9Z1bDn1v-40">
          <mxGeometry x="-0.0069" y="1" relative="1" as="geometry">
            <mxPoint x="2" y="-9" as="offset" />
          </mxGeometry>
        </mxCell>
        <mxCell id="g-hYqG9BcbnA9Z1bDn1v-70" value="" style="endArrow=none;html=1;rounded=0;entryX=-0.001;entryY=0.3;entryDx=0;entryDy=0;entryPerimeter=0;exitX=1.001;exitY=0.297;exitDx=0;exitDy=0;exitPerimeter=0;dashed=1;dashPattern=1 1;fillColor=#d0cee2;strokeColor=#CC99FF;" edge="1" parent="g-hYqG9BcbnA9Z1bDn1v-69">
          <mxGeometry width="50" height="50" relative="1" as="geometry">
            <mxPoint x="720" y="100.00000000000023" as="sourcePoint" />
            <mxPoint x="-1.4399999999999136" y="101.25999999999999" as="targetPoint" />
            <Array as="points" />
          </mxGeometry>
        </mxCell>
        <mxCell id="g-hYqG9BcbnA9Z1bDn1v-52" value="" style="endArrow=classic;html=1;rounded=1;curved=0;arcSize=10;" edge="1" parent="g-hYqG9BcbnA9Z1bDn1v-69">
          <mxGeometry width="50" height="50" relative="1" as="geometry">
            <mxPoint x="520.3425196850394" y="140" as="sourcePoint" />
            <mxPoint x="520.3425196850394" y="160" as="targetPoint" />
            <Array as="points">
              <mxPoint x="560" y="140" />
              <mxPoint x="560" y="160" />
              <mxPoint x="540" y="160" />
              <mxPoint x="520" y="160" />
            </Array>
          </mxGeometry>
        </mxCell>
        <mxCell id="g-hYqG9BcbnA9Z1bDn1v-53" value="Create contestant" style="edgeLabel;html=1;align=center;verticalAlign=middle;resizable=0;points=[];" vertex="1" connectable="0" parent="g-hYqG9BcbnA9Z1bDn1v-52">
          <mxGeometry x="-0.6485" y="-1" relative="1" as="geometry">
            <mxPoint y="-11" as="offset" />
          </mxGeometry>
        </mxCell>
        <mxCell id="g-hYqG9BcbnA9Z1bDn1v-92" value="&lt;font color=&quot;#030303&quot;&gt;Contestant registration sequence diagram&lt;/font&gt;" style="text;html=1;strokeColor=#10739e;fillColor=#b1ddf0;align=center;verticalAlign=middle;whiteSpace=wrap;rounded=0;" vertex="1" parent="1">
          <mxGeometry x="560" y="720" width="240" height="30" as="geometry" />
        </mxCell>
        <mxCell id="g-hYqG9BcbnA9Z1bDn1v-93" value="&lt;font style=&quot;font-size: 12px;&quot;&gt;Note (1): User registration form will include affiliation list to choose&lt;/font&gt;" style="shape=note;strokeWidth=2;fontSize=14;size=20;whiteSpace=wrap;html=1;fillColor=#fff2cc;strokeColor=#d6b656;fontColor=#666600;align=left;spacingTop=15;" vertex="1" parent="1">
          <mxGeometry x="320" y="1530" width="200" height="60" as="geometry" />
        </mxCell>
        <mxCell id="g-hYqG9BcbnA9Z1bDn1v-94" value="&lt;font style=&quot;font-size: 12px;&quot;&gt;Note (2): Validate email, username and studentId unique constraints&lt;/font&gt;" style="shape=note;strokeWidth=2;fontSize=14;size=20;whiteSpace=wrap;html=1;fillColor=#fff2cc;strokeColor=#d6b656;fontColor=#666600;align=left;spacingTop=15;" vertex="1" parent="1">
          <mxGeometry x="560" y="1530" width="200" height="60" as="geometry" />
        </mxCell>
        <mxCell id="g-hYqG9BcbnA9Z1bDn1v-96" style="edgeStyle=orthogonalEdgeStyle;rounded=0;orthogonalLoop=1;jettySize=auto;html=1;exitX=1;exitY=0.5;exitDx=0;exitDy=0;dashed=1;endArrow=open;endFill=0;" edge="1" parent="1" source="g-hYqG9BcbnA9Z1bDn1v-95">
          <mxGeometry relative="1" as="geometry">
            <mxPoint x="450" y="1030" as="targetPoint" />
          </mxGeometry>
        </mxCell>
        <mxCell id="g-hYqG9BcbnA9Z1bDn1v-95" value="Note (1)" style="text;html=1;strokeColor=#d6b656;fillColor=#fff2cc;align=center;verticalAlign=middle;whiteSpace=wrap;rounded=0;dashed=1;fontColor=#000000;" vertex="1" parent="1">
          <mxGeometry x="370" y="1050" width="60" height="30" as="geometry" />
        </mxCell>
        <mxCell id="g-hYqG9BcbnA9Z1bDn1v-102" value="Note (2)" style="text;html=1;strokeColor=#d6b656;fillColor=#fff2cc;align=center;verticalAlign=middle;whiteSpace=wrap;rounded=0;dashed=1;fontColor=#000000;" vertex="1" parent="1">
          <mxGeometry x="890" y="1010" width="60" height="30" as="geometry" />
        </mxCell>
        <mxCell id="g-hYqG9BcbnA9Z1bDn1v-103" style="edgeStyle=orthogonalEdgeStyle;rounded=0;orthogonalLoop=1;jettySize=auto;html=1;exitX=0;exitY=0.5;exitDx=0;exitDy=0;dashed=1;endArrow=open;endFill=0;" edge="1" parent="1" source="g-hYqG9BcbnA9Z1bDn1v-102">
          <mxGeometry relative="1" as="geometry">
            <mxPoint x="820" y="1070" as="targetPoint" />
            <mxPoint x="450" y="1070" as="sourcePoint" />
            <Array as="points">
              <mxPoint x="820" y="1025" />
            </Array>
          </mxGeometry>
        </mxCell>
        <mxCell id="g-hYqG9BcbnA9Z1bDn1v-160" value="" style="endArrow=classic;html=1;rounded=0;" edge="1" parent="1">
          <mxGeometry width="50" height="50" relative="1" as="geometry">
            <mxPoint x="520.1" y="890" as="sourcePoint" />
            <mxPoint x="679.6000000000003" y="890" as="targetPoint" />
          </mxGeometry>
        </mxCell>
        <mxCell id="g-hYqG9BcbnA9Z1bDn1v-161" value="Request to find affiliations" style="edgeLabel;html=1;align=center;verticalAlign=middle;resizable=0;points=[];" vertex="1" connectable="0" parent="g-hYqG9BcbnA9Z1bDn1v-160">
          <mxGeometry x="-0.0069" y="1" relative="1" as="geometry">
            <mxPoint x="2" y="-9" as="offset" />
          </mxGeometry>
        </mxCell>
        <mxCell id="g-hYqG9BcbnA9Z1bDn1v-162" value="" style="endArrow=none;html=1;rounded=0;dashed=1;startArrow=block;startFill=1;endFill=0;" edge="1" parent="1">
          <mxGeometry width="50" height="50" relative="1" as="geometry">
            <mxPoint x="520.0094594594593" y="969.6400000000001" as="sourcePoint" />
            <mxPoint x="679.78" y="969.6400000000001" as="targetPoint" />
          </mxGeometry>
        </mxCell>
        <mxCell id="g-hYqG9BcbnA9Z1bDn1v-163" value="Return affiliation list in form" style="edgeLabel;html=1;align=center;verticalAlign=middle;resizable=0;points=[];" vertex="1" connectable="0" parent="g-hYqG9BcbnA9Z1bDn1v-162">
          <mxGeometry x="-0.0069" y="1" relative="1" as="geometry">
            <mxPoint x="2" y="-9" as="offset" />
          </mxGeometry>
        </mxCell>
        <mxCell id="g-hYqG9BcbnA9Z1bDn1v-164" value="" style="shape=umlLifeline;perimeter=lifelinePerimeter;whiteSpace=wrap;html=1;container=1;dropTarget=0;collapsible=0;recursiveResize=0;outlineConnect=0;portConstraint=eastwest;newEdgeStyle={&quot;curved&quot;:0,&quot;rounded&quot;:0};participant=umlActor;" vertex="1" parent="1">
          <mxGeometry x="1470" y="770" width="20" height="820" as="geometry" />
        </mxCell>
        <mxCell id="g-hYqG9BcbnA9Z1bDn1v-165" value="Team registration form" style="shape=umlLifeline;perimeter=lifelinePerimeter;whiteSpace=wrap;html=1;container=1;dropTarget=0;collapsible=0;recursiveResize=0;outlineConnect=0;portConstraint=eastwest;newEdgeStyle={&quot;edgeStyle&quot;:&quot;elbowEdgeStyle&quot;,&quot;elbow&quot;:&quot;vertical&quot;,&quot;curved&quot;:0,&quot;rounded&quot;:0};fillColor=#E5CCFF;strokeColor=#CC99FF;fontColor=#000000;" vertex="1" parent="1">
          <mxGeometry x="1590.72" y="770" width="100" height="820" as="geometry" />
        </mxCell>
        <mxCell id="g-hYqG9BcbnA9Z1bDn1v-166" value="Team controller" style="shape=umlLifeline;perimeter=lifelinePerimeter;whiteSpace=wrap;html=1;container=1;dropTarget=0;collapsible=0;recursiveResize=0;outlineConnect=0;portConstraint=eastwest;newEdgeStyle={&quot;edgeStyle&quot;:&quot;elbowEdgeStyle&quot;,&quot;elbow&quot;:&quot;vertical&quot;,&quot;curved&quot;:0,&quot;rounded&quot;:0};fillColor=#E5CCFF;strokeColor=#CC99FF;fontColor=#000000;" vertex="1" parent="1">
          <mxGeometry x="1750.72" y="770" width="100" height="820" as="geometry" />
        </mxCell>
        <mxCell id="g-hYqG9BcbnA9Z1bDn1v-167" value="Team service" style="shape=umlLifeline;perimeter=lifelinePerimeter;whiteSpace=wrap;html=1;container=1;dropTarget=0;collapsible=0;recursiveResize=0;outlineConnect=0;portConstraint=eastwest;newEdgeStyle={&quot;edgeStyle&quot;:&quot;elbowEdgeStyle&quot;,&quot;elbow&quot;:&quot;vertical&quot;,&quot;curved&quot;:0,&quot;rounded&quot;:0};fillColor=#E5CCFF;strokeColor=#CC99FF;fontColor=#000000;" vertex="1" parent="1">
          <mxGeometry x="1910.72" y="770" width="100" height="820" as="geometry" />
        </mxCell>
        <mxCell id="g-hYqG9BcbnA9Z1bDn1v-168" value="Contestant service" style="shape=umlLifeline;perimeter=lifelinePerimeter;whiteSpace=wrap;html=1;container=1;dropTarget=0;collapsible=0;recursiveResize=0;outlineConnect=0;portConstraint=eastwest;newEdgeStyle={&quot;edgeStyle&quot;:&quot;elbowEdgeStyle&quot;,&quot;elbow&quot;:&quot;vertical&quot;,&quot;curved&quot;:0,&quot;rounded&quot;:0};fillColor=#E5CCFF;strokeColor=#CC99FF;fontColor=#000000;" vertex="1" parent="1">
          <mxGeometry x="2070.72" y="770" width="100" height="820" as="geometry" />
        </mxCell>
        <mxCell id="g-hYqG9BcbnA9Z1bDn1v-169" value="" style="endArrow=classic;html=1;rounded=0;" edge="1" parent="1">
          <mxGeometry width="50" height="50" relative="1" as="geometry">
            <mxPoint x="1481.0494594594593" y="870" as="sourcePoint" />
            <mxPoint x="1640.8200000000002" y="870" as="targetPoint" />
          </mxGeometry>
        </mxCell>
        <mxCell id="g-hYqG9BcbnA9Z1bDn1v-170" value="Open form in web app" style="edgeLabel;html=1;align=center;verticalAlign=middle;resizable=0;points=[];" vertex="1" connectable="0" parent="g-hYqG9BcbnA9Z1bDn1v-169">
          <mxGeometry x="-0.0069" y="1" relative="1" as="geometry">
            <mxPoint x="2" y="-9" as="offset" />
          </mxGeometry>
        </mxCell>
        <mxCell id="g-hYqG9BcbnA9Z1bDn1v-177" value="" style="endArrow=classic;html=1;rounded=0;" edge="1" parent="1">
          <mxGeometry width="50" height="50" relative="1" as="geometry">
            <mxPoint x="1480.9494594594594" y="910" as="sourcePoint" />
            <mxPoint x="1640.72" y="910" as="targetPoint" />
          </mxGeometry>
        </mxCell>
        <mxCell id="g-hYqG9BcbnA9Z1bDn1v-178" value="Fill out form information" style="edgeLabel;html=1;align=center;verticalAlign=middle;resizable=0;points=[];" vertex="1" connectable="0" parent="g-hYqG9BcbnA9Z1bDn1v-177">
          <mxGeometry x="-0.0069" y="1" relative="1" as="geometry">
            <mxPoint x="2" y="-9" as="offset" />
          </mxGeometry>
        </mxCell>
        <mxCell id="g-hYqG9BcbnA9Z1bDn1v-179" value="" style="endArrow=classic;html=1;rounded=0;" edge="1" parent="1">
          <mxGeometry width="50" height="50" relative="1" as="geometry">
            <mxPoint x="1640.7194594594594" y="930" as="sourcePoint" />
            <mxPoint x="1800.49" y="930" as="targetPoint" />
          </mxGeometry>
        </mxCell>
        <mxCell id="g-hYqG9BcbnA9Z1bDn1v-180" value="Send contestant &lt;br&gt;registration information" style="edgeLabel;html=1;align=center;verticalAlign=middle;resizable=0;points=[];" vertex="1" connectable="0" parent="g-hYqG9BcbnA9Z1bDn1v-179">
          <mxGeometry x="-0.0069" y="1" relative="1" as="geometry">
            <mxPoint x="2" y="-19" as="offset" />
          </mxGeometry>
        </mxCell>
        <mxCell id="g-hYqG9BcbnA9Z1bDn1v-181" value="" style="endArrow=classic;html=1;rounded=0;" edge="1" parent="1" target="g-hYqG9BcbnA9Z1bDn1v-168">
          <mxGeometry width="50" height="50" relative="1" as="geometry">
            <mxPoint x="1800.7194594594594" y="950" as="sourcePoint" />
            <mxPoint x="1960.49" y="950" as="targetPoint" />
          </mxGeometry>
        </mxCell>
        <mxCell id="g-hYqG9BcbnA9Z1bDn1v-182" value="Find contestant by email" style="edgeLabel;html=1;align=center;verticalAlign=middle;resizable=0;points=[];" vertex="1" connectable="0" parent="g-hYqG9BcbnA9Z1bDn1v-181">
          <mxGeometry x="-0.0069" y="1" relative="1" as="geometry">
            <mxPoint x="1" y="-13" as="offset" />
          </mxGeometry>
        </mxCell>
        <mxCell id="g-hYqG9BcbnA9Z1bDn1v-189" value="Contestant" style="text;html=1;strokeColor=none;fillColor=none;align=center;verticalAlign=middle;whiteSpace=wrap;rounded=0;" vertex="1" parent="1">
          <mxGeometry x="1440" y="740" width="80" height="30" as="geometry" />
        </mxCell>
        <mxCell id="g-hYqG9BcbnA9Z1bDn1v-212" value="&lt;font color=&quot;#030303&quot;&gt;Team registration sequence diagram&lt;/font&gt;" style="text;html=1;strokeColor=#10739e;fillColor=#b1ddf0;align=center;verticalAlign=middle;whiteSpace=wrap;rounded=0;" vertex="1" parent="1">
          <mxGeometry x="1690" y="720" width="220" height="30" as="geometry" />
        </mxCell>
        <mxCell id="g-hYqG9BcbnA9Z1bDn1v-226" value="&lt;font color=&quot;#000000&quot;&gt;alt&lt;/font&gt;" style="shape=umlFrame;whiteSpace=wrap;html=1;pointerEvents=0;recursiveResize=0;container=1;collapsible=0;width=40;height=20;fillColor=#E5CCFF;strokeColor=#CC99FF;dashed=1;dashPattern=1 1;" vertex="1" parent="1">
          <mxGeometry x="1420" y="970" width="760" height="600" as="geometry" />
        </mxCell>
        <mxCell id="g-hYqG9BcbnA9Z1bDn1v-233" value="&lt;font style=&quot;font-size: 10px;&quot;&gt;[Contestant not found]&lt;/font&gt;" style="text;html=1;strokeColor=none;fillColor=none;align=center;verticalAlign=middle;whiteSpace=wrap;rounded=0;" vertex="1" parent="g-hYqG9BcbnA9Z1bDn1v-226">
          <mxGeometry x="312.5" width="135" height="20" as="geometry" />
        </mxCell>
        <mxCell id="g-hYqG9BcbnA9Z1bDn1v-234" value="&lt;font style=&quot;font-size: 10px;&quot;&gt;[Contestant found]&lt;/font&gt;" style="text;html=1;strokeColor=none;fillColor=none;align=center;verticalAlign=middle;whiteSpace=wrap;rounded=0;" vertex="1" parent="g-hYqG9BcbnA9Z1bDn1v-226">
          <mxGeometry x="312.5" y="100" width="135" height="20" as="geometry" />
        </mxCell>
        <mxCell id="g-hYqG9BcbnA9Z1bDn1v-243" value="" style="endArrow=none;html=1;rounded=0;dashed=1;endFill=0;startArrow=block;startFill=1;" edge="1" parent="g-hYqG9BcbnA9Z1bDn1v-226">
          <mxGeometry width="50" height="50" relative="1" as="geometry">
            <mxPoint x="380.71945945945936" y="40" as="sourcePoint" />
            <mxPoint x="700.0000000000002" y="40" as="targetPoint" />
          </mxGeometry>
        </mxCell>
        <mxCell id="g-hYqG9BcbnA9Z1bDn1v-244" value="Contestant not found error" style="edgeLabel;html=1;align=center;verticalAlign=middle;resizable=0;points=[];" vertex="1" connectable="0" parent="g-hYqG9BcbnA9Z1bDn1v-243">
          <mxGeometry x="-0.0069" y="1" relative="1" as="geometry">
            <mxPoint x="1" y="-13" as="offset" />
          </mxGeometry>
        </mxCell>
        <mxCell id="g-hYqG9BcbnA9Z1bDn1v-245" value="" style="endArrow=none;html=1;rounded=0;dashed=1;endFill=0;startArrow=block;startFill=1;" edge="1" parent="g-hYqG9BcbnA9Z1bDn1v-226">
          <mxGeometry width="50" height="50" relative="1" as="geometry">
            <mxPoint x="221.07945945945937" y="60" as="sourcePoint" />
            <mxPoint x="380.72" y="60" as="targetPoint" />
          </mxGeometry>
        </mxCell>
        <mxCell id="g-hYqG9BcbnA9Z1bDn1v-246" value="Send error response" style="edgeLabel;html=1;align=center;verticalAlign=middle;resizable=0;points=[];" vertex="1" connectable="0" parent="g-hYqG9BcbnA9Z1bDn1v-245">
          <mxGeometry x="-0.0069" y="1" relative="1" as="geometry">
            <mxPoint x="1" y="-13" as="offset" />
          </mxGeometry>
        </mxCell>
        <mxCell id="g-hYqG9BcbnA9Z1bDn1v-247" value="" style="endArrow=none;html=1;rounded=0;dashed=1;endFill=0;startArrow=block;startFill=1;" edge="1" parent="g-hYqG9BcbnA9Z1bDn1v-226">
          <mxGeometry width="50" height="50" relative="1" as="geometry">
            <mxPoint x="60.71945945945933" y="80" as="sourcePoint" />
            <mxPoint x="220.36" y="80" as="targetPoint" />
          </mxGeometry>
        </mxCell>
        <mxCell id="g-hYqG9BcbnA9Z1bDn1v-248" value="Show error response" style="edgeLabel;html=1;align=center;verticalAlign=middle;resizable=0;points=[];" vertex="1" connectable="0" parent="g-hYqG9BcbnA9Z1bDn1v-247">
          <mxGeometry x="-0.0069" y="1" relative="1" as="geometry">
            <mxPoint x="1" y="-13" as="offset" />
          </mxGeometry>
        </mxCell>
        <mxCell id="PAH-_CbpwYxeawKF0gLR-1" value="" style="endArrow=classic;html=1;rounded=0;" edge="1" parent="g-hYqG9BcbnA9Z1bDn1v-226">
          <mxGeometry width="50" height="50" relative="1" as="geometry">
            <mxPoint x="380.71945945945936" y="140" as="sourcePoint" />
            <mxPoint x="700.0000000000002" y="140" as="targetPoint" />
          </mxGeometry>
        </mxCell>
        <mxCell id="PAH-_CbpwYxeawKF0gLR-2" value="Find contestant team" style="edgeLabel;html=1;align=center;verticalAlign=middle;resizable=0;points=[];" vertex="1" connectable="0" parent="PAH-_CbpwYxeawKF0gLR-1">
          <mxGeometry x="-0.0069" y="1" relative="1" as="geometry">
            <mxPoint x="1" y="-13" as="offset" />
          </mxGeometry>
        </mxCell>
        <mxCell id="PAH-_CbpwYxeawKF0gLR-3" value="&lt;font color=&quot;#000000&quot;&gt;alt&lt;/font&gt;" style="shape=umlFrame;whiteSpace=wrap;html=1;pointerEvents=0;recursiveResize=0;container=1;collapsible=0;width=40;height=20;fillColor=#E5CCFF;strokeColor=#CC99FF;dashed=1;dashPattern=1 1;" vertex="1" parent="g-hYqG9BcbnA9Z1bDn1v-226">
          <mxGeometry x="20" y="160" width="720" height="420" as="geometry" />
        </mxCell>
        <mxCell id="PAH-_CbpwYxeawKF0gLR-4" value="&lt;font style=&quot;font-size: 10px;&quot;&gt;[Contestant team found]&lt;/font&gt;" style="text;html=1;strokeColor=none;fillColor=none;align=center;verticalAlign=middle;whiteSpace=wrap;rounded=0;" vertex="1" parent="PAH-_CbpwYxeawKF0gLR-3">
          <mxGeometry x="292.14" width="135" height="20" as="geometry" />
        </mxCell>
        <mxCell id="PAH-_CbpwYxeawKF0gLR-14" value="" style="endArrow=none;html=1;rounded=0;dashed=1;endFill=0;startArrow=block;startFill=1;" edge="1" parent="PAH-_CbpwYxeawKF0gLR-3">
          <mxGeometry width="50" height="50" relative="1" as="geometry">
            <mxPoint x="360.71945945945936" y="40" as="sourcePoint" />
            <mxPoint x="680.0000000000002" y="40" as="targetPoint" />
          </mxGeometry>
        </mxCell>
        <mxCell id="PAH-_CbpwYxeawKF0gLR-15" value="Contestant has team error" style="edgeLabel;html=1;align=center;verticalAlign=middle;resizable=0;points=[];" vertex="1" connectable="0" parent="PAH-_CbpwYxeawKF0gLR-14">
          <mxGeometry x="-0.0069" y="1" relative="1" as="geometry">
            <mxPoint x="1" y="-13" as="offset" />
          </mxGeometry>
        </mxCell>
        <mxCell id="PAH-_CbpwYxeawKF0gLR-16" value="" style="endArrow=none;html=1;rounded=0;dashed=1;endFill=0;startArrow=block;startFill=1;" edge="1" parent="PAH-_CbpwYxeawKF0gLR-3">
          <mxGeometry width="50" height="50" relative="1" as="geometry">
            <mxPoint x="199.99945945945933" y="60" as="sourcePoint" />
            <mxPoint x="359.64" y="60" as="targetPoint" />
          </mxGeometry>
        </mxCell>
        <mxCell id="PAH-_CbpwYxeawKF0gLR-17" value="Send error response" style="edgeLabel;html=1;align=center;verticalAlign=middle;resizable=0;points=[];" vertex="1" connectable="0" parent="PAH-_CbpwYxeawKF0gLR-16">
          <mxGeometry x="-0.0069" y="1" relative="1" as="geometry">
            <mxPoint x="1" y="-13" as="offset" />
          </mxGeometry>
        </mxCell>
        <mxCell id="PAH-_CbpwYxeawKF0gLR-18" value="" style="endArrow=none;html=1;rounded=0;dashed=1;endFill=0;startArrow=block;startFill=1;" edge="1" parent="PAH-_CbpwYxeawKF0gLR-3">
          <mxGeometry width="50" height="50" relative="1" as="geometry">
            <mxPoint x="39.63945945945933" y="80" as="sourcePoint" />
            <mxPoint x="199.27999999999997" y="80" as="targetPoint" />
          </mxGeometry>
        </mxCell>
        <mxCell id="PAH-_CbpwYxeawKF0gLR-19" value="Show error response" style="edgeLabel;html=1;align=center;verticalAlign=middle;resizable=0;points=[];" vertex="1" connectable="0" parent="PAH-_CbpwYxeawKF0gLR-18">
          <mxGeometry x="-0.0069" y="1" relative="1" as="geometry">
            <mxPoint x="1" y="-13" as="offset" />
          </mxGeometry>
        </mxCell>
        <mxCell id="PAH-_CbpwYxeawKF0gLR-21" value="" style="endArrow=none;html=1;rounded=0;dashed=1;endFill=0;startArrow=block;startFill=1;" edge="1" parent="PAH-_CbpwYxeawKF0gLR-3">
          <mxGeometry width="50" height="50" relative="1" as="geometry">
            <mxPoint x="360.71945945945936" y="139.72" as="sourcePoint" />
            <mxPoint x="680.0000000000002" y="139.72" as="targetPoint" />
          </mxGeometry>
        </mxCell>
        <mxCell id="PAH-_CbpwYxeawKF0gLR-22" value="Contestant does not have team" style="edgeLabel;html=1;align=center;verticalAlign=middle;resizable=0;points=[];" vertex="1" connectable="0" parent="PAH-_CbpwYxeawKF0gLR-21">
          <mxGeometry x="-0.0069" y="1" relative="1" as="geometry">
            <mxPoint x="1" y="-13" as="offset" />
          </mxGeometry>
        </mxCell>
        <mxCell id="PAH-_CbpwYxeawKF0gLR-23" value="&lt;font style=&quot;font-size: 10px;&quot;&gt;[Contestant team not found]&lt;/font&gt;" style="text;html=1;strokeColor=none;fillColor=none;align=center;verticalAlign=middle;whiteSpace=wrap;rounded=0;" vertex="1" parent="PAH-_CbpwYxeawKF0gLR-3">
          <mxGeometry x="293.22" y="99.72" width="135" height="20" as="geometry" />
        </mxCell>
        <mxCell id="PAH-_CbpwYxeawKF0gLR-24" value="" style="endArrow=classic;html=1;rounded=0;" edge="1" parent="PAH-_CbpwYxeawKF0gLR-3">
          <mxGeometry width="50" height="50" relative="1" as="geometry">
            <mxPoint x="360.71945945945936" y="179.72" as="sourcePoint" />
            <mxPoint x="680.0000000000002" y="179.72" as="targetPoint" />
          </mxGeometry>
        </mxCell>
        <mxCell id="PAH-_CbpwYxeawKF0gLR-25" value="Create team" style="edgeLabel;html=1;align=center;verticalAlign=middle;resizable=0;points=[];" vertex="1" connectable="0" parent="PAH-_CbpwYxeawKF0gLR-24">
          <mxGeometry x="-0.0069" y="1" relative="1" as="geometry">
            <mxPoint x="1" y="-13" as="offset" />
          </mxGeometry>
        </mxCell>
        <mxCell id="PAH-_CbpwYxeawKF0gLR-42" value="&lt;font color=&quot;#000000&quot;&gt;alt&lt;/font&gt;" style="shape=umlFrame;whiteSpace=wrap;html=1;pointerEvents=0;recursiveResize=0;container=1;collapsible=0;width=40;height=20;fillColor=#E5CCFF;strokeColor=#CC99FF;dashed=1;dashPattern=1 1;" vertex="1" parent="PAH-_CbpwYxeawKF0gLR-3">
          <mxGeometry x="20" y="200" width="680" height="200" as="geometry" />
        </mxCell>
        <mxCell id="PAH-_CbpwYxeawKF0gLR-43" value="" style="endArrow=none;html=1;rounded=0;dashed=1;endFill=0;startArrow=block;startFill=1;" edge="1" parent="PAH-_CbpwYxeawKF0gLR-42">
          <mxGeometry width="50" height="50" relative="1" as="geometry">
            <mxPoint x="341.0794594594594" y="39.41" as="sourcePoint" />
            <mxPoint x="660.3600000000002" y="39.41" as="targetPoint" />
          </mxGeometry>
        </mxCell>
        <mxCell id="PAH-_CbpwYxeawKF0gLR-44" value="Creation success failed" style="edgeLabel;html=1;align=center;verticalAlign=middle;resizable=0;points=[];" vertex="1" connectable="0" parent="PAH-_CbpwYxeawKF0gLR-43">
          <mxGeometry x="-0.0069" y="1" relative="1" as="geometry">
            <mxPoint x="1" y="-13" as="offset" />
          </mxGeometry>
        </mxCell>
        <mxCell id="PAH-_CbpwYxeawKF0gLR-45" value="" style="endArrow=none;html=1;rounded=0;dashed=1;endFill=0;startArrow=block;startFill=1;" edge="1" parent="PAH-_CbpwYxeawKF0gLR-42">
          <mxGeometry width="50" height="50" relative="1" as="geometry">
            <mxPoint x="181.07945945945934" y="60" as="sourcePoint" />
            <mxPoint x="340.71999999999997" y="60" as="targetPoint" />
          </mxGeometry>
        </mxCell>
        <mxCell id="PAH-_CbpwYxeawKF0gLR-46" value="Send error response" style="edgeLabel;html=1;align=center;verticalAlign=middle;resizable=0;points=[];" vertex="1" connectable="0" parent="PAH-_CbpwYxeawKF0gLR-45">
          <mxGeometry x="-0.0069" y="1" relative="1" as="geometry">
            <mxPoint x="1" y="-13" as="offset" />
          </mxGeometry>
        </mxCell>
        <mxCell id="PAH-_CbpwYxeawKF0gLR-47" value="" style="endArrow=none;html=1;rounded=0;dashed=1;endFill=0;startArrow=block;startFill=1;" edge="1" parent="PAH-_CbpwYxeawKF0gLR-42">
          <mxGeometry width="50" height="50" relative="1" as="geometry">
            <mxPoint x="20.71945945945933" y="80" as="sourcePoint" />
            <mxPoint x="180.35999999999999" y="80" as="targetPoint" />
          </mxGeometry>
        </mxCell>
        <mxCell id="PAH-_CbpwYxeawKF0gLR-48" value="Show error response" style="edgeLabel;html=1;align=center;verticalAlign=middle;resizable=0;points=[];" vertex="1" connectable="0" parent="PAH-_CbpwYxeawKF0gLR-47">
          <mxGeometry x="-0.0069" y="1" relative="1" as="geometry">
            <mxPoint x="1" y="-13" as="offset" />
          </mxGeometry>
        </mxCell>
        <mxCell id="PAH-_CbpwYxeawKF0gLR-49" value="" style="endArrow=none;html=1;rounded=0;dashed=1;dashPattern=1 1;fillColor=#d0cee2;strokeColor=#CC99FF;exitX=0.002;exitY=0.356;exitDx=0;exitDy=0;exitPerimeter=0;entryX=1;entryY=0.5;entryDx=0;entryDy=0;entryPerimeter=0;" edge="1" parent="PAH-_CbpwYxeawKF0gLR-42" target="PAH-_CbpwYxeawKF0gLR-42">
          <mxGeometry width="50" height="50" relative="1" as="geometry">
            <mxPoint x="-4.014566457044566e-13" y="99.99999999999977" as="sourcePoint" />
            <mxPoint x="680" y="101" as="targetPoint" />
          </mxGeometry>
        </mxCell>
        <mxCell id="PAH-_CbpwYxeawKF0gLR-50" value="" style="endArrow=none;html=1;rounded=0;dashed=1;endFill=0;startArrow=block;startFill=1;" edge="1" parent="PAH-_CbpwYxeawKF0gLR-42">
          <mxGeometry width="50" height="50" relative="1" as="geometry">
            <mxPoint x="340.53945945945935" y="138.82" as="sourcePoint" />
            <mxPoint x="659.8200000000003" y="138.82" as="targetPoint" />
          </mxGeometry>
        </mxCell>
        <mxCell id="PAH-_CbpwYxeawKF0gLR-51" value="Creation success failed" style="edgeLabel;html=1;align=center;verticalAlign=middle;resizable=0;points=[];" vertex="1" connectable="0" parent="PAH-_CbpwYxeawKF0gLR-50">
          <mxGeometry x="-0.0069" y="1" relative="1" as="geometry">
            <mxPoint x="1" y="-13" as="offset" />
          </mxGeometry>
        </mxCell>
        <mxCell id="PAH-_CbpwYxeawKF0gLR-52" value="" style="endArrow=none;html=1;rounded=0;dashed=1;endFill=0;startArrow=block;startFill=1;" edge="1" parent="PAH-_CbpwYxeawKF0gLR-42">
          <mxGeometry width="50" height="50" relative="1" as="geometry">
            <mxPoint x="180.53945945945935" y="159.41" as="sourcePoint" />
            <mxPoint x="340.17999999999995" y="159.41" as="targetPoint" />
          </mxGeometry>
        </mxCell>
        <mxCell id="PAH-_CbpwYxeawKF0gLR-53" value="Send success response" style="edgeLabel;html=1;align=center;verticalAlign=middle;resizable=0;points=[];" vertex="1" connectable="0" parent="PAH-_CbpwYxeawKF0gLR-52">
          <mxGeometry x="-0.0069" y="1" relative="1" as="geometry">
            <mxPoint x="1" y="-13" as="offset" />
          </mxGeometry>
        </mxCell>
        <mxCell id="PAH-_CbpwYxeawKF0gLR-54" value="" style="endArrow=none;html=1;rounded=0;dashed=1;endFill=0;startArrow=block;startFill=1;" edge="1" parent="PAH-_CbpwYxeawKF0gLR-42">
          <mxGeometry width="50" height="50" relative="1" as="geometry">
            <mxPoint x="20.17945945945933" y="179.41" as="sourcePoint" />
            <mxPoint x="179.82" y="179.41" as="targetPoint" />
          </mxGeometry>
        </mxCell>
        <mxCell id="PAH-_CbpwYxeawKF0gLR-55" value="Show success response" style="edgeLabel;html=1;align=center;verticalAlign=middle;resizable=0;points=[];" vertex="1" connectable="0" parent="PAH-_CbpwYxeawKF0gLR-54">
          <mxGeometry x="-0.0069" y="1" relative="1" as="geometry">
            <mxPoint x="1" y="-13" as="offset" />
          </mxGeometry>
        </mxCell>
        <mxCell id="PAH-_CbpwYxeawKF0gLR-56" value="&lt;font style=&quot;font-size: 10px;&quot;&gt;[Contestant creation failed]&lt;/font&gt;" style="text;html=1;strokeColor=none;fillColor=none;align=center;verticalAlign=middle;whiteSpace=wrap;rounded=0;" vertex="1" parent="PAH-_CbpwYxeawKF0gLR-42">
          <mxGeometry x="272.5" width="135" height="20" as="geometry" />
        </mxCell>
        <mxCell id="PAH-_CbpwYxeawKF0gLR-57" value="&lt;font style=&quot;font-size: 10px;&quot;&gt;[Contestant creation success]&lt;/font&gt;" style="text;html=1;strokeColor=none;fillColor=none;align=center;verticalAlign=middle;whiteSpace=wrap;rounded=0;" vertex="1" parent="PAH-_CbpwYxeawKF0gLR-42">
          <mxGeometry x="272.5" y="100" width="135" height="20" as="geometry" />
        </mxCell>
        <mxCell id="PAH-_CbpwYxeawKF0gLR-20" value="" style="endArrow=none;html=1;rounded=0;dashed=1;dashPattern=1 1;fillColor=#d0cee2;strokeColor=#CC99FF;exitX=0.002;exitY=0.356;exitDx=0;exitDy=0;exitPerimeter=0;entryX=1;entryY=0.359;entryDx=0;entryDy=0;entryPerimeter=0;" edge="1" parent="PAH-_CbpwYxeawKF0gLR-3">
          <mxGeometry width="50" height="50" relative="1" as="geometry">
            <mxPoint x="-4.014566457044566e-13" y="99.71999999999974" as="sourcePoint" />
            <mxPoint x="718.5599999999995" y="100.86000000000007" as="targetPoint" />
          </mxGeometry>
        </mxCell>
        <mxCell id="g-hYqG9BcbnA9Z1bDn1v-235" value="" style="endArrow=none;html=1;rounded=0;entryX=0.999;entryY=0.184;entryDx=0;entryDy=0;entryPerimeter=0;dashed=1;dashPattern=1 1;fillColor=#d0cee2;strokeColor=#CC99FF;exitX=0.001;exitY=0.185;exitDx=0;exitDy=0;exitPerimeter=0;" edge="1" parent="g-hYqG9BcbnA9Z1bDn1v-226">
          <mxGeometry width="50" height="50" relative="1" as="geometry">
            <mxPoint x="0.7599999999997635" y="100.59999999999991" as="sourcePoint" />
            <mxPoint x="759.2400000000002" y="100" as="targetPoint" />
          </mxGeometry>
        </mxCell>
        <mxCell id="PAH-_CbpwYxeawKF0gLR-59" style="edgeStyle=orthogonalEdgeStyle;rounded=0;orthogonalLoop=1;jettySize=auto;html=1;exitX=0.5;exitY=1;exitDx=0;exitDy=0;dashed=1;dashPattern=8 8;endArrow=open;endFill=0;" edge="1" parent="1" source="PAH-_CbpwYxeawKF0gLR-58">
          <mxGeometry relative="1" as="geometry">
            <mxPoint x="2079.8688524590166" y="950" as="targetPoint" />
          </mxGeometry>
        </mxCell>
        <mxCell id="PAH-_CbpwYxeawKF0gLR-58" value="Note (1)" style="text;html=1;strokeColor=#d6b656;fillColor=#fff2cc;align=center;verticalAlign=middle;whiteSpace=wrap;rounded=0;dashed=1;fontColor=#000000;" vertex="1" parent="1">
          <mxGeometry x="2050" y="850" width="60" height="30" as="geometry" />
        </mxCell>
        <mxCell id="PAH-_CbpwYxeawKF0gLR-60" value="&lt;font style=&quot;font-size: 12px;&quot;&gt;Note (1): Find all two given contestant by their emails&lt;/font&gt;" style="shape=note;strokeWidth=2;fontSize=14;size=20;whiteSpace=wrap;html=1;fillColor=#fff2cc;strokeColor=#d6b656;fontColor=#666600;align=left;spacingTop=15;" vertex="1" parent="1">
          <mxGeometry x="1440" y="1610" width="160" height="60" as="geometry" />
        </mxCell>
        <mxCell id="PAH-_CbpwYxeawKF0gLR-61" value="" style="shape=umlLifeline;perimeter=lifelinePerimeter;whiteSpace=wrap;html=1;container=1;dropTarget=0;collapsible=0;recursiveResize=0;outlineConnect=0;portConstraint=eastwest;newEdgeStyle={&quot;curved&quot;:0,&quot;rounded&quot;:0};participant=umlActor;" vertex="1" parent="1">
          <mxGeometry x="2550" y="770" width="20" height="1080" as="geometry" />
        </mxCell>
        <mxCell id="PAH-_CbpwYxeawKF0gLR-62" value="Contest participation trigger" style="shape=umlLifeline;perimeter=lifelinePerimeter;whiteSpace=wrap;html=1;container=1;dropTarget=0;collapsible=0;recursiveResize=0;outlineConnect=0;portConstraint=eastwest;newEdgeStyle={&quot;edgeStyle&quot;:&quot;elbowEdgeStyle&quot;,&quot;elbow&quot;:&quot;vertical&quot;,&quot;curved&quot;:0,&quot;rounded&quot;:0};fillColor=#E5CCFF;strokeColor=#CC99FF;fontColor=#000000;" vertex="1" parent="1">
          <mxGeometry x="2660" y="770" width="120.72" height="1080" as="geometry" />
        </mxCell>
        <mxCell id="PAH-_CbpwYxeawKF0gLR-63" value="Contest controller" style="shape=umlLifeline;perimeter=lifelinePerimeter;whiteSpace=wrap;html=1;container=1;dropTarget=0;collapsible=0;recursiveResize=0;outlineConnect=0;portConstraint=eastwest;newEdgeStyle={&quot;edgeStyle&quot;:&quot;elbowEdgeStyle&quot;,&quot;elbow&quot;:&quot;vertical&quot;,&quot;curved&quot;:0,&quot;rounded&quot;:0};fillColor=#E5CCFF;strokeColor=#CC99FF;fontColor=#000000;" vertex="1" parent="1">
          <mxGeometry x="2820.36" y="770" width="119.28" height="1080" as="geometry" />
        </mxCell>
        <mxCell id="PAH-_CbpwYxeawKF0gLR-64" value="Contest service" style="shape=umlLifeline;perimeter=lifelinePerimeter;whiteSpace=wrap;html=1;container=1;dropTarget=0;collapsible=0;recursiveResize=0;outlineConnect=0;portConstraint=eastwest;newEdgeStyle={&quot;edgeStyle&quot;:&quot;elbowEdgeStyle&quot;,&quot;elbow&quot;:&quot;vertical&quot;,&quot;curved&quot;:0,&quot;rounded&quot;:0};fillColor=#E5CCFF;strokeColor=#CC99FF;fontColor=#000000;" vertex="1" parent="1">
          <mxGeometry x="2979.64" y="770" width="120.72" height="1080" as="geometry" />
        </mxCell>
        <mxCell id="PAH-_CbpwYxeawKF0gLR-65" value="Contest participation service" style="shape=umlLifeline;perimeter=lifelinePerimeter;whiteSpace=wrap;html=1;container=1;dropTarget=0;collapsible=0;recursiveResize=0;outlineConnect=0;portConstraint=eastwest;newEdgeStyle={&quot;edgeStyle&quot;:&quot;elbowEdgeStyle&quot;,&quot;elbow&quot;:&quot;vertical&quot;,&quot;curved&quot;:0,&quot;rounded&quot;:0};fillColor=#E5CCFF;strokeColor=#CC99FF;fontColor=#000000;" vertex="1" parent="1">
          <mxGeometry x="3140" y="770" width="119.28" height="1080" as="geometry" />
        </mxCell>
        <mxCell id="PAH-_CbpwYxeawKF0gLR-68" value="" style="endArrow=classic;html=1;rounded=0;" edge="1" parent="1">
          <mxGeometry width="50" height="50" relative="1" as="geometry">
            <mxPoint x="2560.5894594594592" y="870" as="sourcePoint" />
            <mxPoint x="2720.36" y="870" as="targetPoint" />
          </mxGeometry>
        </mxCell>
        <mxCell id="PAH-_CbpwYxeawKF0gLR-69" value="Press participate button" style="edgeLabel;html=1;align=center;verticalAlign=middle;resizable=0;points=[];" vertex="1" connectable="0" parent="PAH-_CbpwYxeawKF0gLR-68">
          <mxGeometry x="-0.0069" y="1" relative="1" as="geometry">
            <mxPoint x="2" y="-9" as="offset" />
          </mxGeometry>
        </mxCell>
        <mxCell id="PAH-_CbpwYxeawKF0gLR-70" value="" style="endArrow=classic;html=1;rounded=0;" edge="1" parent="1">
          <mxGeometry width="50" height="50" relative="1" as="geometry">
            <mxPoint x="2720.3594594594592" y="890" as="sourcePoint" />
            <mxPoint x="2880.1299999999997" y="890" as="targetPoint" />
          </mxGeometry>
        </mxCell>
        <mxCell id="PAH-_CbpwYxeawKF0gLR-71" value="Send contestant &lt;br&gt;email and contest ID" style="edgeLabel;html=1;align=center;verticalAlign=middle;resizable=0;points=[];" vertex="1" connectable="0" parent="PAH-_CbpwYxeawKF0gLR-70">
          <mxGeometry x="-0.0069" y="1" relative="1" as="geometry">
            <mxPoint x="2" y="-19" as="offset" />
          </mxGeometry>
        </mxCell>
        <mxCell id="PAH-_CbpwYxeawKF0gLR-72" value="" style="endArrow=classic;html=1;rounded=0;" edge="1" parent="1">
          <mxGeometry width="50" height="50" relative="1" as="geometry">
            <mxPoint x="2880.2494594594596" y="910" as="sourcePoint" />
            <mxPoint x="3040" y="910" as="targetPoint" />
          </mxGeometry>
        </mxCell>
        <mxCell id="PAH-_CbpwYxeawKF0gLR-73" value="Find contest information &lt;br&gt;by contest ID" style="edgeLabel;html=1;align=center;verticalAlign=middle;resizable=0;points=[];" vertex="1" connectable="0" parent="PAH-_CbpwYxeawKF0gLR-72">
          <mxGeometry x="-0.0069" y="1" relative="1" as="geometry">
            <mxPoint x="1" y="-19" as="offset" />
          </mxGeometry>
        </mxCell>
        <mxCell id="PAH-_CbpwYxeawKF0gLR-74" value="Contestant" style="text;html=1;strokeColor=none;fillColor=none;align=center;verticalAlign=middle;whiteSpace=wrap;rounded=0;" vertex="1" parent="1">
          <mxGeometry x="2520" y="740" width="80" height="30" as="geometry" />
        </mxCell>
        <mxCell id="PAH-_CbpwYxeawKF0gLR-75" value="&lt;font color=&quot;#030303&quot;&gt;Contest participant sequence diagram&lt;/font&gt;" style="text;html=1;strokeColor=#10739e;fillColor=#b1ddf0;align=center;verticalAlign=middle;whiteSpace=wrap;rounded=0;" vertex="1" parent="1">
          <mxGeometry x="2930" y="710" width="220" height="30" as="geometry" />
        </mxCell>
        <mxCell id="PAH-_CbpwYxeawKF0gLR-120" value="" style="endArrow=none;html=1;rounded=0;dashed=1;endFill=0;startArrow=block;startFill=1;" edge="1" parent="1">
          <mxGeometry width="50" height="50" relative="1" as="geometry">
            <mxPoint x="2880.3594594594592" y="970" as="sourcePoint" />
            <mxPoint x="3040" y="970" as="targetPoint" />
          </mxGeometry>
        </mxCell>
        <mxCell id="PAH-_CbpwYxeawKF0gLR-121" value="Contest not found error" style="edgeLabel;html=1;align=center;verticalAlign=middle;resizable=0;points=[];" vertex="1" connectable="0" parent="PAH-_CbpwYxeawKF0gLR-120">
          <mxGeometry x="-0.0069" y="1" relative="1" as="geometry">
            <mxPoint x="1" y="-13" as="offset" />
          </mxGeometry>
        </mxCell>
        <mxCell id="PAH-_CbpwYxeawKF0gLR-122" value="" style="endArrow=none;html=1;rounded=0;dashed=1;endFill=0;startArrow=block;startFill=1;" edge="1" parent="1">
          <mxGeometry width="50" height="50" relative="1" as="geometry">
            <mxPoint x="2720.7194594594594" y="990" as="sourcePoint" />
            <mxPoint x="2880.36" y="990" as="targetPoint" />
          </mxGeometry>
        </mxCell>
        <mxCell id="PAH-_CbpwYxeawKF0gLR-123" value="Send error response" style="edgeLabel;html=1;align=center;verticalAlign=middle;resizable=0;points=[];" vertex="1" connectable="0" parent="PAH-_CbpwYxeawKF0gLR-122">
          <mxGeometry x="-0.0069" y="1" relative="1" as="geometry">
            <mxPoint x="1" y="-13" as="offset" />
          </mxGeometry>
        </mxCell>
        <mxCell id="PAH-_CbpwYxeawKF0gLR-124" value="" style="endArrow=none;html=1;rounded=0;dashed=1;endFill=0;startArrow=block;startFill=1;" edge="1" parent="1">
          <mxGeometry width="50" height="50" relative="1" as="geometry">
            <mxPoint x="2560.3594594594592" y="1010" as="sourcePoint" />
            <mxPoint x="2720" y="1010" as="targetPoint" />
          </mxGeometry>
        </mxCell>
        <mxCell id="PAH-_CbpwYxeawKF0gLR-125" value="Show error response" style="edgeLabel;html=1;align=center;verticalAlign=middle;resizable=0;points=[];" vertex="1" connectable="0" parent="PAH-_CbpwYxeawKF0gLR-124">
          <mxGeometry x="-0.0069" y="1" relative="1" as="geometry">
            <mxPoint x="1" y="-13" as="offset" />
          </mxGeometry>
        </mxCell>
        <mxCell id="PAH-_CbpwYxeawKF0gLR-128" value="Contestant service" style="shape=umlLifeline;perimeter=lifelinePerimeter;whiteSpace=wrap;html=1;container=1;dropTarget=0;collapsible=0;recursiveResize=0;outlineConnect=0;portConstraint=eastwest;newEdgeStyle={&quot;edgeStyle&quot;:&quot;elbowEdgeStyle&quot;,&quot;elbow&quot;:&quot;vertical&quot;,&quot;curved&quot;:0,&quot;rounded&quot;:0};fillColor=#E5CCFF;strokeColor=#CC99FF;fontColor=#000000;" vertex="1" parent="1">
          <mxGeometry x="3300" y="770" width="119.28" height="1080" as="geometry" />
        </mxCell>
        <mxCell id="PAH-_CbpwYxeawKF0gLR-133" value="" style="endArrow=none;html=1;rounded=0;dashed=1;endFill=0;startArrow=block;startFill=1;" edge="1" parent="1">
          <mxGeometry width="50" height="50" relative="1" as="geometry">
            <mxPoint x="2880.2400000000002" y="1150" as="sourcePoint" />
            <mxPoint x="3359.2800000000007" y="1150" as="targetPoint" />
          </mxGeometry>
        </mxCell>
        <mxCell id="PAH-_CbpwYxeawKF0gLR-134" value="Team not found error" style="edgeLabel;html=1;align=center;verticalAlign=middle;resizable=0;points=[];" vertex="1" connectable="0" parent="PAH-_CbpwYxeawKF0gLR-133">
          <mxGeometry x="-0.0069" y="1" relative="1" as="geometry">
            <mxPoint x="1" y="-9" as="offset" />
          </mxGeometry>
        </mxCell>
        <mxCell id="PAH-_CbpwYxeawKF0gLR-135" value="" style="endArrow=none;html=1;rounded=0;dashed=1;endFill=0;startArrow=block;startFill=1;" edge="1" parent="1">
          <mxGeometry width="50" height="50" relative="1" as="geometry">
            <mxPoint x="2719.9994594594596" y="1169.8" as="sourcePoint" />
            <mxPoint x="2879.6400000000003" y="1169.8" as="targetPoint" />
          </mxGeometry>
        </mxCell>
        <mxCell id="PAH-_CbpwYxeawKF0gLR-136" value="Send error response" style="edgeLabel;html=1;align=center;verticalAlign=middle;resizable=0;points=[];" vertex="1" connectable="0" parent="PAH-_CbpwYxeawKF0gLR-135">
          <mxGeometry x="-0.0069" y="1" relative="1" as="geometry">
            <mxPoint x="1" y="-13" as="offset" />
          </mxGeometry>
        </mxCell>
        <mxCell id="PAH-_CbpwYxeawKF0gLR-137" value="" style="endArrow=none;html=1;rounded=0;dashed=1;endFill=0;startArrow=block;startFill=1;" edge="1" parent="1">
          <mxGeometry width="50" height="50" relative="1" as="geometry">
            <mxPoint x="2559.6394594594594" y="1189.8" as="sourcePoint" />
            <mxPoint x="2719.28" y="1189.8" as="targetPoint" />
          </mxGeometry>
        </mxCell>
        <mxCell id="PAH-_CbpwYxeawKF0gLR-138" value="Show error response" style="edgeLabel;html=1;align=center;verticalAlign=middle;resizable=0;points=[];" vertex="1" connectable="0" parent="PAH-_CbpwYxeawKF0gLR-137">
          <mxGeometry x="-0.0069" y="1" relative="1" as="geometry">
            <mxPoint x="1" y="-13" as="offset" />
          </mxGeometry>
        </mxCell>
        <mxCell id="PAH-_CbpwYxeawKF0gLR-169" value="" style="endArrow=classic;html=1;rounded=0;" edge="1" parent="1">
          <mxGeometry width="50" height="50" relative="1" as="geometry">
            <mxPoint x="3038.62945945946" y="1249.9999999999998" as="sourcePoint" />
            <mxPoint x="3357.770000000001" y="1249.9999999999998" as="targetPoint" />
          </mxGeometry>
        </mxCell>
        <mxCell id="PAH-_CbpwYxeawKF0gLR-170" value="Find contestant" style="edgeLabel;html=1;align=center;verticalAlign=middle;resizable=0;points=[];" vertex="1" connectable="0" parent="PAH-_CbpwYxeawKF0gLR-169">
          <mxGeometry x="-0.0069" y="1" relative="1" as="geometry">
            <mxPoint x="1" y="-9" as="offset" />
          </mxGeometry>
        </mxCell>
        <mxCell id="PAH-_CbpwYxeawKF0gLR-191" value="alt" style="shape=umlFrame;whiteSpace=wrap;html=1;pointerEvents=0;recursiveResize=0;container=1;collapsible=0;width=41;height=30;fillColor=#E5CCFF;strokeColor=#CC99FF;dashed=1;dashPattern=1 1;fontColor=#000000;" vertex="1" parent="1">
          <mxGeometry x="2499.28" y="1070" width="920" height="740" as="geometry" />
        </mxCell>
        <mxCell id="PAH-_CbpwYxeawKF0gLR-192" value="" style="endArrow=none;dashed=1;html=1;dashPattern=1 1;strokeWidth=1;rounded=0;fillColor=#e1d5e7;strokeColor=#CC99FF;exitX=0;exitY=0.582;exitDx=0;exitDy=0;exitPerimeter=0;entryX=1;entryY=0.19;entryDx=0;entryDy=0;entryPerimeter=0;" edge="1" parent="PAH-_CbpwYxeawKF0gLR-191" target="PAH-_CbpwYxeawKF0gLR-191">
          <mxGeometry width="50" height="50" relative="1" as="geometry">
            <mxPoint x="-0.8200000000000016" y="139.99999999999977" as="sourcePoint" />
            <mxPoint x="920" y="141" as="targetPoint" />
          </mxGeometry>
        </mxCell>
        <mxCell id="PAH-_CbpwYxeawKF0gLR-131" value="" style="endArrow=classic;html=1;rounded=0;" edge="1" parent="PAH-_CbpwYxeawKF0gLR-191">
          <mxGeometry width="50" height="50" relative="1" as="geometry">
            <mxPoint x="539.9994594594594" y="39.99999999999977" as="sourcePoint" />
            <mxPoint x="859.1400000000002" y="39.99999999999977" as="targetPoint" />
          </mxGeometry>
        </mxCell>
        <mxCell id="PAH-_CbpwYxeawKF0gLR-132" value="Find contestant team" style="edgeLabel;html=1;align=center;verticalAlign=middle;resizable=0;points=[];" vertex="1" connectable="0" parent="PAH-_CbpwYxeawKF0gLR-131">
          <mxGeometry x="-0.0069" y="1" relative="1" as="geometry">
            <mxPoint x="1" y="-9" as="offset" />
          </mxGeometry>
        </mxCell>
        <mxCell id="PAH-_CbpwYxeawKF0gLR-196" value="" style="endArrow=none;html=1;rounded=0;dashed=1;endFill=0;startArrow=block;startFill=1;" edge="1" parent="PAH-_CbpwYxeawKF0gLR-191">
          <mxGeometry width="50" height="50" relative="1" as="geometry">
            <mxPoint x="380.7800000000002" y="220" as="sourcePoint" />
            <mxPoint x="859.8200000000011" y="220" as="targetPoint" />
          </mxGeometry>
        </mxCell>
        <mxCell id="PAH-_CbpwYxeawKF0gLR-197" value="Contestant not found error" style="edgeLabel;html=1;align=center;verticalAlign=middle;resizable=0;points=[];" vertex="1" connectable="0" parent="PAH-_CbpwYxeawKF0gLR-196">
          <mxGeometry x="-0.0069" y="1" relative="1" as="geometry">
            <mxPoint x="1" y="-9" as="offset" />
          </mxGeometry>
        </mxCell>
        <mxCell id="PAH-_CbpwYxeawKF0gLR-198" value="" style="endArrow=none;html=1;rounded=0;dashed=1;endFill=0;startArrow=block;startFill=1;" edge="1" parent="PAH-_CbpwYxeawKF0gLR-191">
          <mxGeometry width="50" height="50" relative="1" as="geometry">
            <mxPoint x="220.53945945945952" y="239.79999999999995" as="sourcePoint" />
            <mxPoint x="380.1800000000003" y="239.79999999999995" as="targetPoint" />
          </mxGeometry>
        </mxCell>
        <mxCell id="PAH-_CbpwYxeawKF0gLR-199" value="Send error response" style="edgeLabel;html=1;align=center;verticalAlign=middle;resizable=0;points=[];" vertex="1" connectable="0" parent="PAH-_CbpwYxeawKF0gLR-198">
          <mxGeometry x="-0.0069" y="1" relative="1" as="geometry">
            <mxPoint x="1" y="-13" as="offset" />
          </mxGeometry>
        </mxCell>
        <mxCell id="PAH-_CbpwYxeawKF0gLR-200" value="" style="endArrow=none;html=1;rounded=0;dashed=1;endFill=0;startArrow=block;startFill=1;" edge="1" parent="PAH-_CbpwYxeawKF0gLR-191">
          <mxGeometry width="50" height="50" relative="1" as="geometry">
            <mxPoint x="60.179459459459395" y="259.79999999999995" as="sourcePoint" />
            <mxPoint x="219.82000000000016" y="259.79999999999995" as="targetPoint" />
          </mxGeometry>
        </mxCell>
        <mxCell id="PAH-_CbpwYxeawKF0gLR-201" value="Show error response" style="edgeLabel;html=1;align=center;verticalAlign=middle;resizable=0;points=[];" vertex="1" connectable="0" parent="PAH-_CbpwYxeawKF0gLR-200">
          <mxGeometry x="-0.0069" y="1" relative="1" as="geometry">
            <mxPoint x="1" y="-13" as="offset" />
          </mxGeometry>
        </mxCell>
        <mxCell id="PAH-_CbpwYxeawKF0gLR-202" value="" style="endArrow=none;dashed=1;html=1;dashPattern=1 1;strokeWidth=1;rounded=0;fillColor=#e1d5e7;strokeColor=#CC99FF;exitX=0;exitY=0.582;exitDx=0;exitDy=0;exitPerimeter=0;entryX=1;entryY=0.378;entryDx=0;entryDy=0;entryPerimeter=0;" edge="1" parent="PAH-_CbpwYxeawKF0gLR-191" target="PAH-_CbpwYxeawKF0gLR-191">
          <mxGeometry width="50" height="50" relative="1" as="geometry">
            <mxPoint x="-0.8200000000000021" y="279.9999999999998" as="sourcePoint" />
            <mxPoint x="960.8199999999997" y="280.69" as="targetPoint" />
          </mxGeometry>
        </mxCell>
        <mxCell id="PAH-_CbpwYxeawKF0gLR-141" value="" style="endArrow=none;html=1;rounded=0;dashed=1;endFill=0;startArrow=block;startFill=1;" edge="1" parent="PAH-_CbpwYxeawKF0gLR-191">
          <mxGeometry width="50" height="50" relative="1" as="geometry">
            <mxPoint x="380.96000000000004" y="390" as="sourcePoint" />
            <mxPoint x="700" y="390" as="targetPoint" />
          </mxGeometry>
        </mxCell>
        <mxCell id="PAH-_CbpwYxeawKF0gLR-142" value="Participated contestant error" style="edgeLabel;html=1;align=center;verticalAlign=middle;resizable=0;points=[];" vertex="1" connectable="0" parent="PAH-_CbpwYxeawKF0gLR-141">
          <mxGeometry x="-0.0069" y="1" relative="1" as="geometry">
            <mxPoint x="1" y="-9" as="offset" />
          </mxGeometry>
        </mxCell>
        <mxCell id="PAH-_CbpwYxeawKF0gLR-143" value="" style="endArrow=none;html=1;rounded=0;dashed=1;endFill=0;startArrow=block;startFill=1;" edge="1" parent="PAH-_CbpwYxeawKF0gLR-191">
          <mxGeometry width="50" height="50" relative="1" as="geometry">
            <mxPoint x="220.71945945945936" y="409.8000000000002" as="sourcePoint" />
            <mxPoint x="380.3600000000006" y="409.8000000000002" as="targetPoint" />
          </mxGeometry>
        </mxCell>
        <mxCell id="PAH-_CbpwYxeawKF0gLR-144" value="Send error response" style="edgeLabel;html=1;align=center;verticalAlign=middle;resizable=0;points=[];" vertex="1" connectable="0" parent="PAH-_CbpwYxeawKF0gLR-143">
          <mxGeometry x="-0.0069" y="1" relative="1" as="geometry">
            <mxPoint x="1" y="-13" as="offset" />
          </mxGeometry>
        </mxCell>
        <mxCell id="PAH-_CbpwYxeawKF0gLR-145" value="" style="endArrow=none;html=1;rounded=0;dashed=1;endFill=0;startArrow=block;startFill=1;" edge="1" parent="PAH-_CbpwYxeawKF0gLR-191">
          <mxGeometry width="50" height="50" relative="1" as="geometry">
            <mxPoint x="60.44945945945983" y="429.8000000000002" as="sourcePoint" />
            <mxPoint x="220.09000000000015" y="429.8000000000002" as="targetPoint" />
          </mxGeometry>
        </mxCell>
        <mxCell id="PAH-_CbpwYxeawKF0gLR-146" value="Show error response" style="edgeLabel;html=1;align=center;verticalAlign=middle;resizable=0;points=[];" vertex="1" connectable="0" parent="PAH-_CbpwYxeawKF0gLR-145">
          <mxGeometry x="-0.0069" y="1" relative="1" as="geometry">
            <mxPoint x="1" y="-13" as="offset" />
          </mxGeometry>
        </mxCell>
        <mxCell id="PAH-_CbpwYxeawKF0gLR-139" value="" style="endArrow=classic;html=1;rounded=0;" edge="1" parent="PAH-_CbpwYxeawKF0gLR-191">
          <mxGeometry width="50" height="50" relative="1" as="geometry">
            <mxPoint x="540.0694594594597" y="319.9999999999998" as="sourcePoint" />
            <mxPoint x="700" y="320" as="targetPoint" />
          </mxGeometry>
        </mxCell>
        <mxCell id="PAH-_CbpwYxeawKF0gLR-140" value="Validate participated &lt;br&gt;contestant" style="edgeLabel;html=1;align=center;verticalAlign=middle;resizable=0;points=[];" vertex="1" connectable="0" parent="PAH-_CbpwYxeawKF0gLR-139">
          <mxGeometry x="-0.0069" y="1" relative="1" as="geometry">
            <mxPoint x="1" y="-15" as="offset" />
          </mxGeometry>
        </mxCell>
        <mxCell id="PAH-_CbpwYxeawKF0gLR-182" value="alt" style="shape=umlFrame;whiteSpace=wrap;html=1;pointerEvents=0;recursiveResize=0;container=1;collapsible=0;width=40;fillColor=#E5CCFF;strokeColor=#CC99FF;fontColor=#000000;height=20;dashed=1;dashPattern=1 1;" vertex="1" parent="PAH-_CbpwYxeawKF0gLR-191">
          <mxGeometry x="20" y="340" width="880" height="380" as="geometry" />
        </mxCell>
        <mxCell id="PAH-_CbpwYxeawKF0gLR-183" value="" style="endArrow=none;dashed=1;html=1;dashPattern=1 1;strokeWidth=1;rounded=0;fillColor=#e1d5e7;strokeColor=#CC99FF;entryX=1;entryY=0.262;entryDx=0;entryDy=0;entryPerimeter=0;exitX=0;exitY=0.582;exitDx=0;exitDy=0;exitPerimeter=0;" edge="1" parent="PAH-_CbpwYxeawKF0gLR-182" target="PAH-_CbpwYxeawKF0gLR-182">
          <mxGeometry width="50" height="50" relative="1" as="geometry">
            <mxPoint y="99.99999999999977" as="sourcePoint" />
            <mxPoint x="840" y="100.47999999999979" as="targetPoint" />
          </mxGeometry>
        </mxCell>
        <mxCell id="PAH-_CbpwYxeawKF0gLR-184" value="&lt;font style=&quot;font-size: 10px;&quot;&gt;[Contestant is participated]&lt;/font&gt;" style="text;html=1;strokeColor=none;fillColor=none;align=center;verticalAlign=middle;whiteSpace=wrap;rounded=0;" vertex="1" parent="PAH-_CbpwYxeawKF0gLR-182">
          <mxGeometry x="361.25" width="157.5" height="20" as="geometry" />
        </mxCell>
        <mxCell id="PAH-_CbpwYxeawKF0gLR-185" value="&lt;font style=&quot;font-size: 10px;&quot;&gt;[Contestant is not participated]&lt;/font&gt;" style="text;html=1;strokeColor=none;fillColor=none;align=center;verticalAlign=middle;whiteSpace=wrap;rounded=0;" vertex="1" parent="PAH-_CbpwYxeawKF0gLR-182">
          <mxGeometry x="361.25" y="100" width="157.5" height="20" as="geometry" />
        </mxCell>
        <mxCell id="PAH-_CbpwYxeawKF0gLR-155" value="" style="endArrow=classic;html=1;rounded=0;" edge="1" parent="PAH-_CbpwYxeawKF0gLR-191">
          <mxGeometry width="50" height="50" relative="1" as="geometry">
            <mxPoint x="539.9794594594605" y="480" as="sourcePoint" />
            <mxPoint x="699.9100000000008" y="480" as="targetPoint" />
          </mxGeometry>
        </mxCell>
        <mxCell id="PAH-_CbpwYxeawKF0gLR-156" value="Register contestant" style="edgeLabel;html=1;align=center;verticalAlign=middle;resizable=0;points=[];" vertex="1" connectable="0" parent="PAH-_CbpwYxeawKF0gLR-155">
          <mxGeometry x="-0.0069" y="1" relative="1" as="geometry">
            <mxPoint x="1" y="-9" as="offset" />
          </mxGeometry>
        </mxCell>
        <mxCell id="PAH-_CbpwYxeawKF0gLR-177" value="alt" style="shape=umlFrame;whiteSpace=wrap;html=1;pointerEvents=0;recursiveResize=0;container=1;collapsible=0;width=40;height=20;fillColor=#E5CCFF;strokeColor=#CC99FF;fontColor=#000000;dashed=1;dashPattern=1 1;" vertex="1" parent="PAH-_CbpwYxeawKF0gLR-191">
          <mxGeometry x="40" y="500" width="840" height="200" as="geometry" />
        </mxCell>
        <mxCell id="PAH-_CbpwYxeawKF0gLR-163" value="" style="endArrow=none;html=1;rounded=0;dashed=1;endFill=0;startArrow=block;startFill=1;" edge="1" parent="PAH-_CbpwYxeawKF0gLR-177">
          <mxGeometry width="50" height="50" relative="1" as="geometry">
            <mxPoint x="340.72000000000025" y="140" as="sourcePoint" />
            <mxPoint x="659.7600000000002" y="140" as="targetPoint" />
          </mxGeometry>
        </mxCell>
        <mxCell id="PAH-_CbpwYxeawKF0gLR-164" value="Contestant registration success" style="edgeLabel;html=1;align=center;verticalAlign=middle;resizable=0;points=[];" vertex="1" connectable="0" parent="PAH-_CbpwYxeawKF0gLR-163">
          <mxGeometry x="-0.0069" y="1" relative="1" as="geometry">
            <mxPoint x="1" y="-9" as="offset" />
          </mxGeometry>
        </mxCell>
        <mxCell id="PAH-_CbpwYxeawKF0gLR-165" value="" style="endArrow=none;html=1;rounded=0;dashed=1;endFill=0;startArrow=block;startFill=1;" edge="1" parent="PAH-_CbpwYxeawKF0gLR-177">
          <mxGeometry width="50" height="50" relative="1" as="geometry">
            <mxPoint x="180.59945945945947" y="160" as="sourcePoint" />
            <mxPoint x="340.24000000000024" y="160" as="targetPoint" />
          </mxGeometry>
        </mxCell>
        <mxCell id="PAH-_CbpwYxeawKF0gLR-166" value="Send success response" style="edgeLabel;html=1;align=center;verticalAlign=middle;resizable=0;points=[];" vertex="1" connectable="0" parent="PAH-_CbpwYxeawKF0gLR-165">
          <mxGeometry x="-0.0069" y="1" relative="1" as="geometry">
            <mxPoint x="1" y="-13" as="offset" />
          </mxGeometry>
        </mxCell>
        <mxCell id="PAH-_CbpwYxeawKF0gLR-167" value="" style="endArrow=none;html=1;rounded=0;dashed=1;endFill=0;startArrow=block;startFill=1;" edge="1" parent="PAH-_CbpwYxeawKF0gLR-177">
          <mxGeometry width="50" height="50" relative="1" as="geometry">
            <mxPoint x="20.23945945945934" y="180" as="sourcePoint" />
            <mxPoint x="179.8800000000001" y="180" as="targetPoint" />
          </mxGeometry>
        </mxCell>
        <mxCell id="PAH-_CbpwYxeawKF0gLR-168" value="Show success response" style="edgeLabel;html=1;align=center;verticalAlign=middle;resizable=0;points=[];" vertex="1" connectable="0" parent="PAH-_CbpwYxeawKF0gLR-167">
          <mxGeometry x="-0.0069" y="1" relative="1" as="geometry">
            <mxPoint x="1" y="-13" as="offset" />
          </mxGeometry>
        </mxCell>
        <mxCell id="PAH-_CbpwYxeawKF0gLR-157" value="" style="endArrow=none;html=1;rounded=0;dashed=1;endFill=0;startArrow=block;startFill=1;" edge="1" parent="PAH-_CbpwYxeawKF0gLR-177">
          <mxGeometry width="50" height="50" relative="1" as="geometry">
            <mxPoint x="340.87000000000035" y="40" as="sourcePoint" />
            <mxPoint x="659.9100000000003" y="40" as="targetPoint" />
          </mxGeometry>
        </mxCell>
        <mxCell id="PAH-_CbpwYxeawKF0gLR-158" value="Contestant registration error" style="edgeLabel;html=1;align=center;verticalAlign=middle;resizable=0;points=[];" vertex="1" connectable="0" parent="PAH-_CbpwYxeawKF0gLR-157">
          <mxGeometry x="-0.0069" y="1" relative="1" as="geometry">
            <mxPoint x="1" y="-9" as="offset" />
          </mxGeometry>
        </mxCell>
        <mxCell id="PAH-_CbpwYxeawKF0gLR-159" value="" style="endArrow=none;html=1;rounded=0;dashed=1;endFill=0;startArrow=block;startFill=1;" edge="1" parent="PAH-_CbpwYxeawKF0gLR-177">
          <mxGeometry width="50" height="50" relative="1" as="geometry">
            <mxPoint x="180.62945945945967" y="59.799999999999955" as="sourcePoint" />
            <mxPoint x="340.27000000000044" y="59.799999999999955" as="targetPoint" />
          </mxGeometry>
        </mxCell>
        <mxCell id="PAH-_CbpwYxeawKF0gLR-160" value="Send error response" style="edgeLabel;html=1;align=center;verticalAlign=middle;resizable=0;points=[];" vertex="1" connectable="0" parent="PAH-_CbpwYxeawKF0gLR-159">
          <mxGeometry x="-0.0069" y="1" relative="1" as="geometry">
            <mxPoint x="1" y="-13" as="offset" />
          </mxGeometry>
        </mxCell>
        <mxCell id="PAH-_CbpwYxeawKF0gLR-161" value="" style="endArrow=none;html=1;rounded=0;dashed=1;endFill=0;startArrow=block;startFill=1;" edge="1" parent="PAH-_CbpwYxeawKF0gLR-177">
          <mxGeometry width="50" height="50" relative="1" as="geometry">
            <mxPoint x="20.26945945945954" y="79.79999999999995" as="sourcePoint" />
            <mxPoint x="179.9100000000003" y="79.79999999999995" as="targetPoint" />
          </mxGeometry>
        </mxCell>
        <mxCell id="PAH-_CbpwYxeawKF0gLR-162" value="Show error response" style="edgeLabel;html=1;align=center;verticalAlign=middle;resizable=0;points=[];" vertex="1" connectable="0" parent="PAH-_CbpwYxeawKF0gLR-161">
          <mxGeometry x="-0.0069" y="1" relative="1" as="geometry">
            <mxPoint x="1" y="-13" as="offset" />
          </mxGeometry>
        </mxCell>
        <mxCell id="PAH-_CbpwYxeawKF0gLR-178" value="" style="endArrow=none;dashed=1;html=1;dashPattern=1 1;strokeWidth=1;rounded=0;fillColor=#e1d5e7;strokeColor=#CC99FF;entryX=1;entryY=0.584;entryDx=0;entryDy=0;entryPerimeter=0;exitX=0;exitY=0.582;exitDx=0;exitDy=0;exitPerimeter=0;" edge="1" parent="PAH-_CbpwYxeawKF0gLR-177">
          <mxGeometry width="50" height="50" relative="1" as="geometry">
            <mxPoint y="99.99999999999977" as="sourcePoint" />
            <mxPoint x="840" y="100.47999999999979" as="targetPoint" />
          </mxGeometry>
        </mxCell>
        <mxCell id="PAH-_CbpwYxeawKF0gLR-180" value="&lt;font style=&quot;font-size: 10px;&quot;&gt;[Contestant registration failed]&lt;/font&gt;" style="text;html=1;strokeColor=none;fillColor=none;align=center;verticalAlign=middle;whiteSpace=wrap;rounded=0;" vertex="1" parent="PAH-_CbpwYxeawKF0gLR-177">
          <mxGeometry x="341.25" width="157.5" height="20" as="geometry" />
        </mxCell>
        <mxCell id="PAH-_CbpwYxeawKF0gLR-181" value="&lt;font style=&quot;font-size: 10px;&quot;&gt;[Contestant registration success]&lt;/font&gt;" style="text;html=1;strokeColor=none;fillColor=none;align=center;verticalAlign=middle;whiteSpace=wrap;rounded=0;" vertex="1" parent="PAH-_CbpwYxeawKF0gLR-177">
          <mxGeometry x="341.25" y="100" width="157.5" height="20" as="geometry" />
        </mxCell>
        <mxCell id="PAH-_CbpwYxeawKF0gLR-203" value="&lt;font style=&quot;font-size: 10px;&quot;&gt;[Contest of type team and team not found]&lt;/font&gt;" style="text;html=1;strokeColor=none;fillColor=none;align=center;verticalAlign=middle;whiteSpace=wrap;rounded=0;" vertex="1" parent="PAH-_CbpwYxeawKF0gLR-191">
          <mxGeometry x="355.63" width="208.75" height="20" as="geometry" />
        </mxCell>
        <mxCell id="PAH-_CbpwYxeawKF0gLR-204" value="&lt;font style=&quot;font-size: 10px;&quot;&gt;[Contest of type single and contestant not found]&lt;/font&gt;" style="text;html=1;strokeColor=none;fillColor=none;align=center;verticalAlign=middle;whiteSpace=wrap;rounded=0;" vertex="1" parent="PAH-_CbpwYxeawKF0gLR-191">
          <mxGeometry x="342.81" y="140" width="234.38" height="20" as="geometry" />
        </mxCell>
        <mxCell id="PAH-_CbpwYxeawKF0gLR-248" value="&lt;font style=&quot;font-size: 10px;&quot;&gt;[Any contest type and contestant or team found]&lt;/font&gt;" style="text;html=1;strokeColor=none;fillColor=none;align=center;verticalAlign=middle;whiteSpace=wrap;rounded=0;" vertex="1" parent="PAH-_CbpwYxeawKF0gLR-191">
          <mxGeometry x="342.81" y="280" width="234.38" height="20" as="geometry" />
        </mxCell>
        <mxCell id="PAH-_CbpwYxeawKF0gLR-249" value="alt" style="shape=umlFrame;whiteSpace=wrap;html=1;pointerEvents=0;recursiveResize=0;container=1;collapsible=0;width=40;height=25;fillColor=#E5CCFF;strokeColor=#CC99FF;dashed=1;dashPattern=1 1;fontColor=#000000;" vertex="1" parent="1">
          <mxGeometry x="2480" y="935" width="960" height="895" as="geometry" />
        </mxCell>
        <mxCell id="PAH-_CbpwYxeawKF0gLR-250" value="" style="endArrow=none;dashed=1;html=1;dashPattern=1 1;strokeWidth=1;rounded=0;fillColor=#e1d5e7;strokeColor=#CC99FF;exitX=0;exitY=0.582;exitDx=0;exitDy=0;exitPerimeter=0;entryX=1.001;entryY=0.107;entryDx=0;entryDy=0;entryPerimeter=0;" edge="1" parent="PAH-_CbpwYxeawKF0gLR-249" target="PAH-_CbpwYxeawKF0gLR-249">
          <mxGeometry width="50" height="50" relative="1" as="geometry">
            <mxPoint x="1.9895196601282805e-13" y="94.99999999999977" as="sourcePoint" />
            <mxPoint x="920.8200000000002" y="96" as="targetPoint" />
          </mxGeometry>
        </mxCell>
        <mxCell id="PAH-_CbpwYxeawKF0gLR-251" value="&lt;font style=&quot;font-size: 10px;&quot;&gt;[Contest found]&lt;/font&gt;" style="text;html=1;strokeColor=none;fillColor=none;align=center;verticalAlign=middle;whiteSpace=wrap;rounded=0;" vertex="1" parent="PAH-_CbpwYxeawKF0gLR-249">
          <mxGeometry x="374.9000000000002" y="95" width="208.75" height="20" as="geometry" />
        </mxCell>
        <mxCell id="PAH-_CbpwYxeawKF0gLR-252" value="&lt;font style=&quot;font-size: 10px;&quot;&gt;[Contest not found]&lt;/font&gt;" style="text;html=1;strokeColor=none;fillColor=none;align=center;verticalAlign=middle;whiteSpace=wrap;rounded=0;" vertex="1" parent="PAH-_CbpwYxeawKF0gLR-249">
          <mxGeometry x="540.0000000000002" width="208.75" height="20" as="geometry" />
        </mxCell>
      </root>
    </mxGraphModel>
  </diagram>
  <diagram id="04rVfdWkFVvctgnPeH5a" name="Activity diagrams">
    <mxGraphModel dx="1586" dy="1008" grid="1" gridSize="10" guides="1" tooltips="1" connect="1" arrows="1" fold="1" page="1" pageScale="1" pageWidth="4681" pageHeight="3300" math="0" shadow="0">
      <root>
        <mxCell id="0" />
        <mxCell id="1" parent="0" />
        <mxCell id="KEI7bLeKo9I2-bvpJQQr-2" value="User fills registration form" style="rounded=1;whiteSpace=wrap;html=1;" vertex="1" parent="1">
          <mxGeometry x="120" y="120" width="160" height="40" as="geometry" />
        </mxCell>
        <mxCell id="KEI7bLeKo9I2-bvpJQQr-3" value="is user &lt;br&gt;information valid?" style="rhombus;whiteSpace=wrap;html=1;" vertex="1" parent="1">
          <mxGeometry x="120" y="200" width="160" height="80" as="geometry" />
        </mxCell>
        <mxCell id="cYs3viYYGxEDhvHrIcaQ-9" style="edgeStyle=orthogonalEdgeStyle;rounded=0;orthogonalLoop=1;jettySize=auto;html=1;exitX=0.5;exitY=1;exitDx=0;exitDy=0;entryX=0.5;entryY=0;entryDx=0;entryDy=0;" edge="1" parent="1" source="KEI7bLeKo9I2-bvpJQQr-4" target="KEI7bLeKo9I2-bvpJQQr-24">
          <mxGeometry relative="1" as="geometry" />
        </mxCell>
        <mxCell id="KEI7bLeKo9I2-bvpJQQr-4" value="Show error to user" style="rounded=1;whiteSpace=wrap;html=1;" vertex="1" parent="1">
          <mxGeometry x="360" y="220" width="120" height="40" as="geometry" />
        </mxCell>
        <mxCell id="KEI7bLeKo9I2-bvpJQQr-5" value="Create contestant" style="rounded=1;whiteSpace=wrap;html=1;" vertex="1" parent="1">
          <mxGeometry x="120" y="340" width="160" height="40" as="geometry" />
        </mxCell>
        <mxCell id="KEI7bLeKo9I2-bvpJQQr-25" style="edgeStyle=orthogonalEdgeStyle;rounded=0;orthogonalLoop=1;jettySize=auto;html=1;exitX=1;exitY=0.5;exitDx=0;exitDy=0;entryX=0;entryY=0.5;entryDx=0;entryDy=0;" edge="1" parent="1" source="KEI7bLeKo9I2-bvpJQQr-9" target="KEI7bLeKo9I2-bvpJQQr-24">
          <mxGeometry relative="1" as="geometry" />
        </mxCell>
        <mxCell id="KEI7bLeKo9I2-bvpJQQr-9" value="Show &#39;Success&#39; message" style="rounded=1;whiteSpace=wrap;html=1;" vertex="1" parent="1">
          <mxGeometry x="120" y="560" width="160" height="40" as="geometry" />
        </mxCell>
        <mxCell id="KEI7bLeKo9I2-bvpJQQr-11" style="edgeStyle=orthogonalEdgeStyle;rounded=0;exitX=0;exitY=0.5;exitDx=0;exitDy=0;" edge="1" parent="1" source="KEI7bLeKo9I2-bvpJQQr-23" target="KEI7bLeKo9I2-bvpJQQr-2">
          <mxGeometry relative="1" as="geometry">
            <mxPoint x="200" y="80" as="sourcePoint" />
            <Array as="points">
              <mxPoint x="370" y="140" />
              <mxPoint x="370" y="140" />
            </Array>
          </mxGeometry>
        </mxCell>
        <mxCell id="KEI7bLeKo9I2-bvpJQQr-12" style="edgeStyle=orthogonalEdgeStyle;rounded=0;" edge="1" parent="1" source="KEI7bLeKo9I2-bvpJQQr-2" target="KEI7bLeKo9I2-bvpJQQr-3">
          <mxGeometry relative="1" as="geometry" />
        </mxCell>
        <mxCell id="KEI7bLeKo9I2-bvpJQQr-13" value="False" style="edgeStyle=orthogonalEdgeStyle;rounded=0;" edge="1" parent="1" source="KEI7bLeKo9I2-bvpJQQr-3" target="KEI7bLeKo9I2-bvpJQQr-4">
          <mxGeometry relative="1" as="geometry">
            <mxPoint x="250" y="280" as="targetPoint" />
          </mxGeometry>
        </mxCell>
        <mxCell id="KEI7bLeKo9I2-bvpJQQr-14" value="True" style="edgeStyle=orthogonalEdgeStyle;rounded=0;" edge="1" parent="1" source="KEI7bLeKo9I2-bvpJQQr-3" target="KEI7bLeKo9I2-bvpJQQr-5">
          <mxGeometry relative="1" as="geometry" />
        </mxCell>
        <mxCell id="KEI7bLeKo9I2-bvpJQQr-16" style="edgeStyle=orthogonalEdgeStyle;rounded=0;entryX=0.5;entryY=0;entryDx=0;entryDy=0;" edge="1" parent="1" source="KEI7bLeKo9I2-bvpJQQr-5" target="KEI7bLeKo9I2-bvpJQQr-20">
          <mxGeometry relative="1" as="geometry">
            <mxPoint x="200" y="490" as="targetPoint" />
          </mxGeometry>
        </mxCell>
        <mxCell id="KEI7bLeKo9I2-bvpJQQr-17" value="False" style="edgeStyle=orthogonalEdgeStyle;rounded=0;exitX=1;exitY=0.5;exitDx=0;exitDy=0;entryX=0.25;entryY=1;entryDx=0;entryDy=0;" edge="1" parent="1" source="KEI7bLeKo9I2-bvpJQQr-20" target="KEI7bLeKo9I2-bvpJQQr-4">
          <mxGeometry x="-0.7838" relative="1" as="geometry">
            <mxPoint x="360" y="520" as="targetPoint" />
            <mxPoint x="290" y="520" as="sourcePoint" />
            <mxPoint as="offset" />
          </mxGeometry>
        </mxCell>
        <mxCell id="KEI7bLeKo9I2-bvpJQQr-21" style="edgeStyle=orthogonalEdgeStyle;rounded=0;orthogonalLoop=1;jettySize=auto;html=1;exitX=0.5;exitY=1;exitDx=0;exitDy=0;entryX=0.5;entryY=0;entryDx=0;entryDy=0;" edge="1" parent="1" source="KEI7bLeKo9I2-bvpJQQr-20" target="KEI7bLeKo9I2-bvpJQQr-9">
          <mxGeometry relative="1" as="geometry" />
        </mxCell>
        <mxCell id="KEI7bLeKo9I2-bvpJQQr-22" value="True" style="edgeLabel;html=1;align=center;verticalAlign=middle;resizable=0;points=[];" vertex="1" connectable="0" parent="KEI7bLeKo9I2-bvpJQQr-21">
          <mxGeometry x="-0.155" relative="1" as="geometry">
            <mxPoint as="offset" />
          </mxGeometry>
        </mxCell>
        <mxCell id="KEI7bLeKo9I2-bvpJQQr-20" value="Is create contestant&lt;br&gt;success?" style="rhombus;whiteSpace=wrap;html=1;" vertex="1" parent="1">
          <mxGeometry x="120" y="420" width="160" height="80" as="geometry" />
        </mxCell>
        <mxCell id="KEI7bLeKo9I2-bvpJQQr-23" value="" style="ellipse;fillColor=strokeColor;html=1;" vertex="1" parent="1">
          <mxGeometry x="400" y="120" width="40" height="40" as="geometry" />
        </mxCell>
        <mxCell id="KEI7bLeKo9I2-bvpJQQr-24" value="" style="ellipse;html=1;shape=endState;fillColor=strokeColor;" vertex="1" parent="1">
          <mxGeometry x="400" y="560" width="40" height="40" as="geometry" />
        </mxCell>
        <mxCell id="thw8xC_V-NtkogZ6WtIk-1" value="User fills team &lt;br&gt;registration form" style="rounded=1;whiteSpace=wrap;html=1;" vertex="1" parent="1">
          <mxGeometry x="720" y="120" width="160" height="40" as="geometry" />
        </mxCell>
        <mxCell id="thw8xC_V-NtkogZ6WtIk-2" value="are contestants&lt;br&gt;&amp;nbsp;exist?" style="rhombus;whiteSpace=wrap;html=1;" vertex="1" parent="1">
          <mxGeometry x="720" y="200" width="160" height="80" as="geometry" />
        </mxCell>
        <mxCell id="cYs3viYYGxEDhvHrIcaQ-10" style="edgeStyle=orthogonalEdgeStyle;rounded=0;orthogonalLoop=1;jettySize=auto;html=1;exitX=1;exitY=0.5;exitDx=0;exitDy=0;entryX=0.5;entryY=0;entryDx=0;entryDy=0;" edge="1" parent="1" source="thw8xC_V-NtkogZ6WtIk-3" target="thw8xC_V-NtkogZ6WtIk-17">
          <mxGeometry relative="1" as="geometry" />
        </mxCell>
        <mxCell id="thw8xC_V-NtkogZ6WtIk-3" value="Show error to contestant" style="rounded=1;whiteSpace=wrap;html=1;" vertex="1" parent="1">
          <mxGeometry x="960" y="220" width="120" height="40" as="geometry" />
        </mxCell>
        <mxCell id="thw8xC_V-NtkogZ6WtIk-5" style="edgeStyle=orthogonalEdgeStyle;rounded=0;orthogonalLoop=1;jettySize=auto;html=1;exitX=1;exitY=0.5;exitDx=0;exitDy=0;entryX=0;entryY=0.5;entryDx=0;entryDy=0;" edge="1" source="thw8xC_V-NtkogZ6WtIk-6" target="thw8xC_V-NtkogZ6WtIk-17" parent="1">
          <mxGeometry relative="1" as="geometry" />
        </mxCell>
        <mxCell id="thw8xC_V-NtkogZ6WtIk-6" value="Show &#39;Success&#39; message" style="rounded=1;whiteSpace=wrap;html=1;" vertex="1" parent="1">
          <mxGeometry x="940" y="600" width="160" height="40" as="geometry" />
        </mxCell>
        <mxCell id="thw8xC_V-NtkogZ6WtIk-7" style="edgeStyle=orthogonalEdgeStyle;rounded=0;exitX=0;exitY=0.5;exitDx=0;exitDy=0;" edge="1" source="thw8xC_V-NtkogZ6WtIk-16" target="thw8xC_V-NtkogZ6WtIk-1" parent="1">
          <mxGeometry relative="1" as="geometry">
            <mxPoint x="800" y="80" as="sourcePoint" />
          </mxGeometry>
        </mxCell>
        <mxCell id="thw8xC_V-NtkogZ6WtIk-8" style="edgeStyle=orthogonalEdgeStyle;rounded=0;" edge="1" source="thw8xC_V-NtkogZ6WtIk-1" target="thw8xC_V-NtkogZ6WtIk-2" parent="1">
          <mxGeometry relative="1" as="geometry" />
        </mxCell>
        <mxCell id="thw8xC_V-NtkogZ6WtIk-9" value="False" style="edgeStyle=orthogonalEdgeStyle;rounded=0;" edge="1" source="thw8xC_V-NtkogZ6WtIk-2" target="thw8xC_V-NtkogZ6WtIk-3" parent="1">
          <mxGeometry relative="1" as="geometry">
            <mxPoint x="850" y="280" as="targetPoint" />
          </mxGeometry>
        </mxCell>
        <mxCell id="thw8xC_V-NtkogZ6WtIk-10" value="True" style="edgeStyle=orthogonalEdgeStyle;rounded=0;entryX=0.5;entryY=0;entryDx=0;entryDy=0;" edge="1" source="thw8xC_V-NtkogZ6WtIk-2" target="thw8xC_V-NtkogZ6WtIk-15" parent="1">
          <mxGeometry relative="1" as="geometry">
            <mxPoint x="800" y="340" as="targetPoint" />
          </mxGeometry>
        </mxCell>
        <mxCell id="thw8xC_V-NtkogZ6WtIk-12" value="False" style="edgeStyle=orthogonalEdgeStyle;rounded=0;exitX=1;exitY=0.5;exitDx=0;exitDy=0;entryX=0.25;entryY=1;entryDx=0;entryDy=0;" edge="1" source="thw8xC_V-NtkogZ6WtIk-15" target="thw8xC_V-NtkogZ6WtIk-3" parent="1">
          <mxGeometry x="-0.6667" relative="1" as="geometry">
            <mxPoint x="960" y="520" as="targetPoint" />
            <mxPoint x="890" y="520" as="sourcePoint" />
            <mxPoint as="offset" />
          </mxGeometry>
        </mxCell>
        <mxCell id="thw8xC_V-NtkogZ6WtIk-13" style="edgeStyle=orthogonalEdgeStyle;rounded=0;orthogonalLoop=1;jettySize=auto;html=1;exitX=0.5;exitY=1;exitDx=0;exitDy=0;entryX=0.5;entryY=0;entryDx=0;entryDy=0;" edge="1" source="thw8xC_V-NtkogZ6WtIk-15" target="thw8xC_V-NtkogZ6WtIk-18" parent="1">
          <mxGeometry relative="1" as="geometry" />
        </mxCell>
        <mxCell id="thw8xC_V-NtkogZ6WtIk-14" value="True" style="edgeLabel;html=1;align=center;verticalAlign=middle;resizable=0;points=[];" vertex="1" connectable="0" parent="thw8xC_V-NtkogZ6WtIk-13">
          <mxGeometry x="-0.155" relative="1" as="geometry">
            <mxPoint as="offset" />
          </mxGeometry>
        </mxCell>
        <mxCell id="thw8xC_V-NtkogZ6WtIk-15" value="are contestants &lt;br&gt;registered?" style="rhombus;whiteSpace=wrap;html=1;" vertex="1" parent="1">
          <mxGeometry x="720" y="340" width="160" height="80" as="geometry" />
        </mxCell>
        <mxCell id="thw8xC_V-NtkogZ6WtIk-16" value="" style="ellipse;fillColor=strokeColor;html=1;" vertex="1" parent="1">
          <mxGeometry x="1000" y="120" width="40" height="40" as="geometry" />
        </mxCell>
        <mxCell id="thw8xC_V-NtkogZ6WtIk-17" value="" style="ellipse;html=1;shape=endState;fillColor=strokeColor;" vertex="1" parent="1">
          <mxGeometry x="1160" y="600" width="40" height="40" as="geometry" />
        </mxCell>
        <mxCell id="thw8xC_V-NtkogZ6WtIk-21" style="edgeStyle=orthogonalEdgeStyle;rounded=0;orthogonalLoop=1;jettySize=auto;html=1;exitX=1;exitY=0.5;exitDx=0;exitDy=0;entryX=0;entryY=0.5;entryDx=0;entryDy=0;" edge="1" parent="1" source="thw8xC_V-NtkogZ6WtIk-18" target="thw8xC_V-NtkogZ6WtIk-20">
          <mxGeometry relative="1" as="geometry" />
        </mxCell>
        <mxCell id="thw8xC_V-NtkogZ6WtIk-18" value="Create team" style="rounded=1;whiteSpace=wrap;html=1;" vertex="1" parent="1">
          <mxGeometry x="720" y="480" width="160" height="40" as="geometry" />
        </mxCell>
        <mxCell id="thw8xC_V-NtkogZ6WtIk-22" style="edgeStyle=orthogonalEdgeStyle;rounded=0;orthogonalLoop=1;jettySize=auto;html=1;exitX=0.5;exitY=0;exitDx=0;exitDy=0;entryX=0.5;entryY=1;entryDx=0;entryDy=0;" edge="1" parent="1" source="thw8xC_V-NtkogZ6WtIk-20" target="thw8xC_V-NtkogZ6WtIk-3">
          <mxGeometry relative="1" as="geometry" />
        </mxCell>
        <mxCell id="thw8xC_V-NtkogZ6WtIk-23" value="False" style="edgeLabel;html=1;align=center;verticalAlign=middle;resizable=0;points=[];" vertex="1" connectable="0" parent="thw8xC_V-NtkogZ6WtIk-22">
          <mxGeometry x="-0.6822" relative="1" as="geometry">
            <mxPoint y="12" as="offset" />
          </mxGeometry>
        </mxCell>
        <mxCell id="thw8xC_V-NtkogZ6WtIk-24" style="edgeStyle=orthogonalEdgeStyle;rounded=0;orthogonalLoop=1;jettySize=auto;html=1;exitX=0.5;exitY=1;exitDx=0;exitDy=0;entryX=0.5;entryY=0;entryDx=0;entryDy=0;" edge="1" parent="1" source="thw8xC_V-NtkogZ6WtIk-20" target="thw8xC_V-NtkogZ6WtIk-6">
          <mxGeometry relative="1" as="geometry" />
        </mxCell>
        <mxCell id="thw8xC_V-NtkogZ6WtIk-25" value="True" style="edgeLabel;html=1;align=center;verticalAlign=middle;resizable=0;points=[];" vertex="1" connectable="0" parent="thw8xC_V-NtkogZ6WtIk-24">
          <mxGeometry x="-0.7975" y="-1" relative="1" as="geometry">
            <mxPoint x="1" y="24" as="offset" />
          </mxGeometry>
        </mxCell>
        <mxCell id="thw8xC_V-NtkogZ6WtIk-20" value="is team created&lt;br&gt;&amp;nbsp;successfully?" style="rhombus;whiteSpace=wrap;html=1;" vertex="1" parent="1">
          <mxGeometry x="940" y="460" width="160" height="80" as="geometry" />
        </mxCell>
        <mxCell id="IXhGMdJQciEkj_50d0m4-1" value="User sends contest participation request" style="rounded=1;whiteSpace=wrap;html=1;" vertex="1" parent="1">
          <mxGeometry x="1440" y="120" width="160" height="40" as="geometry" />
        </mxCell>
        <mxCell id="IXhGMdJQciEkj_50d0m4-2" value="is contest exist?" style="rhombus;whiteSpace=wrap;html=1;" vertex="1" parent="1">
          <mxGeometry x="1440" y="210" width="160" height="60" as="geometry" />
        </mxCell>
        <mxCell id="cYs3viYYGxEDhvHrIcaQ-11" style="edgeStyle=orthogonalEdgeStyle;rounded=0;orthogonalLoop=1;jettySize=auto;html=1;exitX=1;exitY=0.5;exitDx=0;exitDy=0;entryX=1;entryY=0.5;entryDx=0;entryDy=0;" edge="1" parent="1" source="IXhGMdJQciEkj_50d0m4-3" target="IXhGMdJQciEkj_50d0m4-15">
          <mxGeometry relative="1" as="geometry" />
        </mxCell>
        <mxCell id="IXhGMdJQciEkj_50d0m4-3" value="Show error to contestant" style="rounded=1;whiteSpace=wrap;html=1;" vertex="1" parent="1">
          <mxGeometry x="1860" y="220" width="120" height="40" as="geometry" />
        </mxCell>
        <mxCell id="IXhGMdJQciEkj_50d0m4-4" style="edgeStyle=orthogonalEdgeStyle;rounded=0;orthogonalLoop=1;jettySize=auto;html=1;exitX=1;exitY=0.5;exitDx=0;exitDy=0;entryX=0;entryY=0.5;entryDx=0;entryDy=0;" edge="1" source="IXhGMdJQciEkj_50d0m4-5" target="IXhGMdJQciEkj_50d0m4-15" parent="1">
          <mxGeometry relative="1" as="geometry" />
        </mxCell>
        <mxCell id="IXhGMdJQciEkj_50d0m4-5" value="Show &#39;Success&#39; message" style="rounded=1;whiteSpace=wrap;html=1;" vertex="1" parent="1">
          <mxGeometry x="1440" y="820" width="160" height="40" as="geometry" />
        </mxCell>
        <mxCell id="IXhGMdJQciEkj_50d0m4-6" style="edgeStyle=orthogonalEdgeStyle;rounded=0;exitX=0;exitY=0.5;exitDx=0;exitDy=0;" edge="1" source="IXhGMdJQciEkj_50d0m4-14" target="IXhGMdJQciEkj_50d0m4-1" parent="1">
          <mxGeometry relative="1" as="geometry">
            <mxPoint x="1540" y="80" as="sourcePoint" />
          </mxGeometry>
        </mxCell>
        <mxCell id="IXhGMdJQciEkj_50d0m4-7" style="edgeStyle=orthogonalEdgeStyle;rounded=0;" edge="1" source="IXhGMdJQciEkj_50d0m4-1" target="IXhGMdJQciEkj_50d0m4-2" parent="1">
          <mxGeometry relative="1" as="geometry" />
        </mxCell>
        <mxCell id="IXhGMdJQciEkj_50d0m4-8" value="False" style="edgeStyle=orthogonalEdgeStyle;rounded=0;" edge="1" source="IXhGMdJQciEkj_50d0m4-2" target="IXhGMdJQciEkj_50d0m4-3" parent="1">
          <mxGeometry relative="1" as="geometry">
            <mxPoint x="1590" y="280" as="targetPoint" />
          </mxGeometry>
        </mxCell>
        <mxCell id="IXhGMdJQciEkj_50d0m4-9" value="True" style="edgeStyle=orthogonalEdgeStyle;rounded=0;entryX=0.5;entryY=0;entryDx=0;entryDy=0;" edge="1" source="IXhGMdJQciEkj_50d0m4-2" target="IXhGMdJQciEkj_50d0m4-13" parent="1">
          <mxGeometry relative="1" as="geometry">
            <mxPoint x="1520" y="340" as="targetPoint" />
          </mxGeometry>
        </mxCell>
        <mxCell id="IXhGMdJQciEkj_50d0m4-11" style="edgeStyle=orthogonalEdgeStyle;rounded=0;orthogonalLoop=1;jettySize=auto;html=1;exitX=0.5;exitY=1;exitDx=0;exitDy=0;entryX=0.5;entryY=0;entryDx=0;entryDy=0;" edge="1" source="IXhGMdJQciEkj_50d0m4-13" target="IXhGMdJQciEkj_50d0m4-17" parent="1">
          <mxGeometry relative="1" as="geometry" />
        </mxCell>
        <mxCell id="IXhGMdJQciEkj_50d0m4-12" value="True" style="edgeLabel;html=1;align=center;verticalAlign=middle;resizable=0;points=[];" vertex="1" connectable="0" parent="IXhGMdJQciEkj_50d0m4-11">
          <mxGeometry x="-0.155" relative="1" as="geometry">
            <mxPoint as="offset" />
          </mxGeometry>
        </mxCell>
        <mxCell id="94riVQwGgUncrMbtoZMp-2" value="False" style="edgeStyle=orthogonalEdgeStyle;rounded=0;orthogonalLoop=1;jettySize=auto;html=1;exitX=1;exitY=0.5;exitDx=0;exitDy=0;entryX=0;entryY=0.5;entryDx=0;entryDy=0;" edge="1" parent="1" source="IXhGMdJQciEkj_50d0m4-13" target="94riVQwGgUncrMbtoZMp-1">
          <mxGeometry relative="1" as="geometry" />
        </mxCell>
        <mxCell id="IXhGMdJQciEkj_50d0m4-13" value="is contest of &lt;br&gt;type TEAM?" style="rhombus;whiteSpace=wrap;html=1;" vertex="1" parent="1">
          <mxGeometry x="1440" y="320" width="160" height="80" as="geometry" />
        </mxCell>
        <mxCell id="IXhGMdJQciEkj_50d0m4-14" value="" style="ellipse;fillColor=strokeColor;html=1;" vertex="1" parent="1">
          <mxGeometry x="1680" y="120" width="40" height="40" as="geometry" />
        </mxCell>
        <mxCell id="IXhGMdJQciEkj_50d0m4-15" value="" style="ellipse;html=1;shape=endState;fillColor=strokeColor;" vertex="1" parent="1">
          <mxGeometry x="1680" y="820" width="40" height="40" as="geometry" />
        </mxCell>
        <mxCell id="94riVQwGgUncrMbtoZMp-5" style="edgeStyle=orthogonalEdgeStyle;rounded=0;orthogonalLoop=1;jettySize=auto;html=1;exitX=1;exitY=0.5;exitDx=0;exitDy=0;entryX=0;entryY=0.5;entryDx=0;entryDy=0;" edge="1" parent="1" source="IXhGMdJQciEkj_50d0m4-17" target="94riVQwGgUncrMbtoZMp-3">
          <mxGeometry relative="1" as="geometry" />
        </mxCell>
        <mxCell id="IXhGMdJQciEkj_50d0m4-17" value="Find team member list" style="rounded=1;whiteSpace=wrap;html=1;" vertex="1" parent="1">
          <mxGeometry x="1440" y="460" width="160" height="40" as="geometry" />
        </mxCell>
        <mxCell id="mCovOykZ-5rq1JPbcMjp-1" style="edgeStyle=orthogonalEdgeStyle;rounded=0;orthogonalLoop=1;jettySize=auto;html=1;exitX=0.5;exitY=1;exitDx=0;exitDy=0;" edge="1" parent="1" source="IXhGMdJQciEkj_50d0m4-2" target="IXhGMdJQciEkj_50d0m4-2">
          <mxGeometry relative="1" as="geometry" />
        </mxCell>
        <mxCell id="94riVQwGgUncrMbtoZMp-4" style="edgeStyle=orthogonalEdgeStyle;rounded=0;orthogonalLoop=1;jettySize=auto;html=1;exitX=0.5;exitY=1;exitDx=0;exitDy=0;entryX=0.5;entryY=0;entryDx=0;entryDy=0;" edge="1" parent="1" source="94riVQwGgUncrMbtoZMp-1" target="94riVQwGgUncrMbtoZMp-3">
          <mxGeometry relative="1" as="geometry" />
        </mxCell>
        <mxCell id="94riVQwGgUncrMbtoZMp-1" value="Find contestant" style="rounded=1;whiteSpace=wrap;html=1;" vertex="1" parent="1">
          <mxGeometry x="1700" y="340" width="120" height="40" as="geometry" />
        </mxCell>
        <mxCell id="94riVQwGgUncrMbtoZMp-6" style="edgeStyle=orthogonalEdgeStyle;rounded=0;orthogonalLoop=1;jettySize=auto;html=1;exitX=1;exitY=0.5;exitDx=0;exitDy=0;entryX=0.25;entryY=1;entryDx=0;entryDy=0;" edge="1" parent="1" source="94riVQwGgUncrMbtoZMp-3" target="IXhGMdJQciEkj_50d0m4-3">
          <mxGeometry relative="1" as="geometry">
            <Array as="points">
              <mxPoint x="1890" y="480" />
            </Array>
          </mxGeometry>
        </mxCell>
        <mxCell id="94riVQwGgUncrMbtoZMp-7" value="False" style="edgeLabel;html=1;align=center;verticalAlign=middle;resizable=0;points=[];" vertex="1" connectable="0" parent="94riVQwGgUncrMbtoZMp-6">
          <mxGeometry x="-0.8496" y="-1" relative="1" as="geometry">
            <mxPoint x="8" y="-1" as="offset" />
          </mxGeometry>
        </mxCell>
        <mxCell id="WCaA-II55OP6E-Pr_A80-2" value="True" style="edgeStyle=orthogonalEdgeStyle;rounded=0;orthogonalLoop=1;jettySize=auto;html=1;exitX=0.5;exitY=1;exitDx=0;exitDy=0;entryX=0.5;entryY=0;entryDx=0;entryDy=0;" edge="1" parent="1" source="94riVQwGgUncrMbtoZMp-3" target="WCaA-II55OP6E-Pr_A80-3">
          <mxGeometry relative="1" as="geometry">
            <mxPoint x="1760" y="600" as="targetPoint" />
          </mxGeometry>
        </mxCell>
        <mxCell id="94riVQwGgUncrMbtoZMp-3" value="is contestant&lt;br&gt;exist?" style="rhombus;whiteSpace=wrap;html=1;" vertex="1" parent="1">
          <mxGeometry x="1690" y="450" width="140" height="60" as="geometry" />
        </mxCell>
        <mxCell id="WCaA-II55OP6E-Pr_A80-4" style="edgeStyle=orthogonalEdgeStyle;rounded=0;orthogonalLoop=1;jettySize=auto;html=1;exitX=1;exitY=0.5;exitDx=0;exitDy=0;entryX=0.5;entryY=1;entryDx=0;entryDy=0;" edge="1" parent="1" source="WCaA-II55OP6E-Pr_A80-3" target="IXhGMdJQciEkj_50d0m4-3">
          <mxGeometry relative="1" as="geometry">
            <Array as="points">
              <mxPoint x="1920" y="620" />
            </Array>
          </mxGeometry>
        </mxCell>
        <mxCell id="WCaA-II55OP6E-Pr_A80-5" value="True" style="edgeLabel;html=1;align=center;verticalAlign=middle;resizable=0;points=[];" vertex="1" connectable="0" parent="WCaA-II55OP6E-Pr_A80-4">
          <mxGeometry x="-0.8618" relative="1" as="geometry">
            <mxPoint as="offset" />
          </mxGeometry>
        </mxCell>
        <mxCell id="cYs3viYYGxEDhvHrIcaQ-2" style="edgeStyle=orthogonalEdgeStyle;rounded=0;orthogonalLoop=1;jettySize=auto;html=1;exitX=0;exitY=0.5;exitDx=0;exitDy=0;entryX=1;entryY=0.5;entryDx=0;entryDy=0;" edge="1" parent="1" source="WCaA-II55OP6E-Pr_A80-3" target="cYs3viYYGxEDhvHrIcaQ-1">
          <mxGeometry relative="1" as="geometry" />
        </mxCell>
        <mxCell id="cYs3viYYGxEDhvHrIcaQ-3" value="False" style="edgeLabel;html=1;align=center;verticalAlign=middle;resizable=0;points=[];" vertex="1" connectable="0" parent="cYs3viYYGxEDhvHrIcaQ-2">
          <mxGeometry x="-0.259" relative="1" as="geometry">
            <mxPoint as="offset" />
          </mxGeometry>
        </mxCell>
        <mxCell id="WCaA-II55OP6E-Pr_A80-3" value="is contestant &lt;br&gt;participated?" style="rhombus;whiteSpace=wrap;html=1;" vertex="1" parent="1">
          <mxGeometry x="1680" y="580" width="160" height="80" as="geometry" />
        </mxCell>
        <mxCell id="cYs3viYYGxEDhvHrIcaQ-5" style="edgeStyle=orthogonalEdgeStyle;rounded=0;orthogonalLoop=1;jettySize=auto;html=1;exitX=0.5;exitY=1;exitDx=0;exitDy=0;entryX=0.5;entryY=0;entryDx=0;entryDy=0;" edge="1" parent="1" source="cYs3viYYGxEDhvHrIcaQ-1" target="cYs3viYYGxEDhvHrIcaQ-4">
          <mxGeometry relative="1" as="geometry" />
        </mxCell>
        <mxCell id="cYs3viYYGxEDhvHrIcaQ-1" value="Create contestant registration" style="rounded=1;whiteSpace=wrap;html=1;" vertex="1" parent="1">
          <mxGeometry x="1430" y="600" width="180" height="40" as="geometry" />
        </mxCell>
        <mxCell id="cYs3viYYGxEDhvHrIcaQ-6" style="edgeStyle=orthogonalEdgeStyle;rounded=0;orthogonalLoop=1;jettySize=auto;html=1;exitX=1;exitY=0.5;exitDx=0;exitDy=0;entryX=0.75;entryY=1;entryDx=0;entryDy=0;" edge="1" parent="1" source="cYs3viYYGxEDhvHrIcaQ-4" target="IXhGMdJQciEkj_50d0m4-3">
          <mxGeometry relative="1" as="geometry">
            <Array as="points">
              <mxPoint x="1950" y="720" />
            </Array>
          </mxGeometry>
        </mxCell>
        <mxCell id="cYs3viYYGxEDhvHrIcaQ-7" value="False" style="edgeLabel;html=1;align=center;verticalAlign=middle;resizable=0;points=[];" vertex="1" connectable="0" parent="cYs3viYYGxEDhvHrIcaQ-6">
          <mxGeometry x="-0.6325" y="-1" relative="1" as="geometry">
            <mxPoint x="-103" as="offset" />
          </mxGeometry>
        </mxCell>
        <mxCell id="cYs3viYYGxEDhvHrIcaQ-8" value="True" style="edgeStyle=orthogonalEdgeStyle;rounded=0;orthogonalLoop=1;jettySize=auto;html=1;exitX=0.5;exitY=1;exitDx=0;exitDy=0;entryX=0.5;entryY=0;entryDx=0;entryDy=0;" edge="1" parent="1" source="cYs3viYYGxEDhvHrIcaQ-4" target="IXhGMdJQciEkj_50d0m4-5">
          <mxGeometry relative="1" as="geometry" />
        </mxCell>
        <mxCell id="cYs3viYYGxEDhvHrIcaQ-15" value="" style="rounded=0;whiteSpace=wrap;html=1;fillColor=none;dashed=1;dashPattern=12 12;" vertex="1" parent="1">
          <mxGeometry x="1420" y="410" width="510" height="260" as="geometry" />
        </mxCell>
        <mxCell id="cYs3viYYGxEDhvHrIcaQ-4" value="is created &lt;br&gt;success?" style="rhombus;whiteSpace=wrap;html=1;" vertex="1" parent="1">
          <mxGeometry x="1460" y="690" width="120" height="60" as="geometry" />
        </mxCell>
        <mxCell id="cYs3viYYGxEDhvHrIcaQ-17" style="edgeStyle=orthogonalEdgeStyle;rounded=0;orthogonalLoop=1;jettySize=auto;html=1;exitX=0;exitY=0.5;exitDx=0;exitDy=0;exitPerimeter=0;entryX=0.5;entryY=1;entryDx=0;entryDy=0;dashed=1;dashPattern=8 8;endArrow=open;endFill=0;" edge="1" parent="1" source="cYs3viYYGxEDhvHrIcaQ-16" target="cYs3viYYGxEDhvHrIcaQ-15">
          <mxGeometry relative="1" as="geometry" />
        </mxCell>
        <mxCell id="cYs3viYYGxEDhvHrIcaQ-16" value="&lt;font style=&quot;font-size: 12px;&quot;&gt;This process repeat for each member in the team member list&lt;/font&gt;" style="shape=note;strokeWidth=2;fontSize=14;size=20;whiteSpace=wrap;html=1;fillColor=#fff2cc;strokeColor=#d6b656;fontColor=#666600;align=left;spacingTop=10;" vertex="1" parent="1">
          <mxGeometry x="1740" y="740" width="240" height="60" as="geometry" />
        </mxCell>
      </root>
    </mxGraphModel>
  </diagram>
</mxfile>
